<svg width="1176" height="252" viewBox="0 0 1176 252" fill="none" xmlns="http://www.w3.org/2000/svg">
<rect x="0.5" y="0.5" width="1175" height="251" rx="5.5" fill="white" stroke="#DCDCDC"/>
<path d="M33.12 34H34.716L31.048 28.946L34.548 24.2H33.05L29.97 28.456H27.898V24.2H26.526V34H27.898V29.688H29.942L33.12 34ZM41.1646 26.58L38.6026 32.516L36.0126 26.58H34.6126L37.8886 33.986L37.6506 34.504C37.2866 35.358 36.8806 35.652 36.2366 35.652C35.7326 35.652 35.2706 35.456 34.9066 35.106L34.3326 36.114C34.7946 36.562 35.5226 36.8 36.2366 36.8C37.3706 36.8 38.2246 36.31 38.8826 34.742L42.4806 26.58H41.1646ZM47.7907 26.51C46.6987 26.51 45.7467 26.93 45.1447 27.756V26.58H43.8567V36.716H45.2007V32.88C45.8167 33.678 46.7407 34.084 47.7907 34.084C49.9607 34.084 51.5427 32.572 51.5427 30.29C51.5427 28.022 49.9607 26.51 47.7907 26.51ZM47.6787 32.908C46.2647 32.908 45.1867 31.872 45.1867 30.29C45.1867 28.722 46.2647 27.686 47.6787 27.686C49.1067 27.686 50.1847 28.722 50.1847 30.29C50.1847 31.872 49.1067 32.908 47.6787 32.908ZM56.7294 34.084C58.0594 34.084 59.1654 33.524 59.7534 32.488L58.7314 31.844C58.2554 32.572 57.5274 32.908 56.7154 32.908C55.2594 32.908 54.1674 31.9 54.1674 30.29C54.1674 28.708 55.2594 27.686 56.7154 27.686C57.5274 27.686 58.2554 28.022 58.7314 28.75L59.7534 28.092C59.1654 27.056 58.0594 26.51 56.7294 26.51C54.4474 26.51 52.8094 28.078 52.8094 30.29C52.8094 32.502 54.4474 34.084 56.7294 34.084Z" fill="black"/>
<rect y="79" width="1" height="1176" transform="rotate(-90 0 79)" fill="#DCDCDC"/>
<path d="M207.432 24.2V32.782H203.358V24.2H201.986V32.782H197.912V24.2H196.526V34H208.804V24.2H207.432ZM217.004 34H218.586L215.576 30.15L218.39 26.58H216.948L214.54 29.716H212.972V26.58H211.628V34H212.972V30.864H214.512L217.004 34ZM222.927 34.084C225.153 34.084 226.777 32.502 226.777 30.29C226.777 28.078 225.153 26.51 222.927 26.51C220.701 26.51 219.063 28.078 219.063 30.29C219.063 32.502 220.701 34.084 222.927 34.084ZM222.927 32.908C221.499 32.908 220.421 31.872 220.421 30.29C220.421 28.708 221.499 27.686 222.927 27.686C224.355 27.686 225.419 28.708 225.419 30.29C225.419 31.872 224.355 32.908 222.927 32.908ZM229.335 26.58L229.209 29.324C229.111 31.074 229.055 32.894 227.851 32.894C227.753 32.894 227.641 32.88 227.515 32.852L227.431 33.986C227.739 34.07 228.005 34.112 228.257 34.112C229.937 34.112 230.287 32.026 230.413 29.408L230.497 27.756H233.689V34H235.033V26.58H229.335ZM240.278 26.51C239.088 26.51 237.982 26.846 237.212 27.462L237.772 28.47C238.346 27.98 239.242 27.672 240.124 27.672C241.454 27.672 242.112 28.33 242.112 29.464V29.73H239.984C237.772 29.73 237.002 30.71 237.002 31.9C237.002 33.188 238.066 34.084 239.746 34.084C240.908 34.084 241.734 33.692 242.182 33.02V34H243.456V29.52C243.456 27.49 242.308 26.51 240.278 26.51ZM239.97 33.048C238.948 33.048 238.332 32.586 238.332 31.844C238.332 31.214 238.71 30.696 240.04 30.696H242.112V31.732C241.776 32.586 240.978 33.048 239.97 33.048Z" fill="black"/>
<rect x="173" width="1" height="252" fill="#DCDCDC"/>
<rect x="573" width="1" height="252" fill="#DCDCDC"/>
<path d="M607.956 34L607.942 24.2H606.794L602.762 31.088L598.674 24.2H597.526V34H598.87V26.902L602.412 32.81H603.056L606.598 26.86L606.612 34H607.956ZM610.782 34H612.014L616.55 28.596V34H617.894V26.58H616.676L612.126 31.984V26.58H610.782V34ZM620.503 34H621.847V30.892H626.075V34H627.419V26.58H626.075V29.73H621.847V26.58H620.503V34ZM630.032 34H631.264L635.8 28.596V34H637.144V26.58H635.926L631.376 31.984V26.58H630.032V34ZM647.047 26.58L644.051 31.592L641.139 26.58H639.753V34H640.985V28.568L643.729 33.16H644.317L647.089 28.582V34H648.307V26.58H647.047ZM653.569 26.51C652.379 26.51 651.273 26.846 650.503 27.462L651.063 28.47C651.637 27.98 652.533 27.672 653.415 27.672C654.745 27.672 655.403 28.33 655.403 29.464V29.73H653.275C651.063 29.73 650.293 30.71 650.293 31.9C650.293 33.188 651.357 34.084 653.037 34.084C654.199 34.084 655.025 33.692 655.473 33.02V34H656.747V29.52C656.747 27.49 655.599 26.51 653.569 26.51ZM653.261 33.048C652.239 33.048 651.623 32.586 651.623 31.844C651.623 31.214 652.001 30.696 653.331 30.696H655.403V31.732C655.067 32.586 654.269 33.048 653.261 33.048ZM659.839 26.58L659.713 29.324C659.615 31.074 659.559 32.894 658.355 32.894C658.257 32.894 658.145 32.88 658.019 32.852L657.935 33.986C658.243 34.07 658.509 34.112 658.761 34.112C660.441 34.112 660.791 32.026 660.917 29.408L661.001 27.756H664.193V34H665.537V26.58H659.839ZM671.566 29.1L669.48 29.086V26.58H668.136V34L671.356 34.014C673.344 34.028 674.464 33.132 674.464 31.522C674.464 29.996 673.456 29.114 671.566 29.1ZM671.244 32.992L669.48 32.978V30.066L671.244 30.094C672.476 30.108 673.092 30.528 673.092 31.508C673.092 32.502 672.462 33.006 671.244 32.992ZM676.189 34H677.533V30.892H681.761V34H683.105V26.58H681.761V29.73H677.533V26.58H676.189V34ZM689.064 29.1L687.062 29.086V26.58H685.718V34L688.84 34.014C690.828 34.028 691.948 33.132 691.948 31.522C691.948 29.996 690.94 29.114 689.064 29.1ZM693.054 34H694.398V26.58H693.054V34ZM688.742 32.992L687.062 32.978V30.066L688.742 30.094C689.96 30.108 690.59 30.528 690.59 31.508C690.59 32.502 689.946 33.006 688.742 32.992ZM700.483 25.614C701.841 25.614 702.667 24.942 702.695 23.682H701.757C701.743 24.382 701.239 24.83 700.469 24.83C699.713 24.83 699.209 24.382 699.195 23.682H698.285C698.299 24.942 699.125 25.614 700.483 25.614ZM697.011 34H698.243L702.779 28.596V34H704.123V26.58H702.905L698.355 31.984V26.58H697.011V34ZM597.302 45.58V53H598.646V46.756H602.832V53H604.176V45.58H597.302ZM607.449 45.58L607.323 48.324C607.225 50.074 607.169 51.894 605.965 51.894C605.867 51.894 605.755 51.88 605.629 51.852L605.545 52.986C605.853 53.07 606.119 53.112 606.371 53.112C608.051 53.112 608.401 51.026 608.527 48.408L608.611 46.756H611.803V53H613.147V45.58H607.449ZM618.391 45.51C617.201 45.51 616.095 45.846 615.325 46.462L615.885 47.47C616.459 46.98 617.355 46.672 618.237 46.672C619.567 46.672 620.225 47.33 620.225 48.464V48.73H618.097C615.885 48.73 615.115 49.71 615.115 50.9C615.115 52.188 616.179 53.084 617.859 53.084C619.021 53.084 619.847 52.692 620.295 52.02V53H621.569V48.52C621.569 46.49 620.421 45.51 618.391 45.51ZM618.083 52.048C617.061 52.048 616.445 51.586 616.445 50.844C616.445 50.214 616.823 49.696 618.153 49.696H620.225V50.732C619.889 51.586 619.091 52.048 618.083 52.048ZM629.52 45.58H622.744V46.756H625.46V53H626.803V46.756H629.52V45.58ZM637.272 49.332C637.272 47.05 635.746 45.51 633.604 45.51C631.462 45.51 629.88 47.092 629.88 49.29C629.88 51.502 631.476 53.084 633.87 53.084C635.102 53.084 636.124 52.664 636.796 51.88L636.054 51.012C635.508 51.614 634.78 51.908 633.912 51.908C632.442 51.908 631.392 51.04 631.224 49.738H637.244C637.258 49.612 637.272 49.444 637.272 49.332ZM633.604 46.644C634.906 46.644 635.844 47.526 635.984 48.772H631.224C631.364 47.512 632.316 46.644 633.604 46.644ZM647.958 53H649.554L647.006 49.178L649.358 45.58H647.916L645.914 48.716H644.458V45.58H643.114V48.716H641.658L639.656 45.58H638.228L640.58 49.164L638.032 53H639.628L641.672 49.864H643.114V53H644.458V49.864H645.9L647.958 53Z" fill="black"/>
<rect x="750" width="1" height="252" fill="#DCDCDC"/>
<path d="M779.422 32.782V24.2H772.534L772.436 27.35C772.338 30.332 772.016 32.698 770.672 32.782H770.196L770.182 36.142H771.484L771.498 34H779.562V36.142H780.864V32.782H779.422ZM773.668 27.476L773.738 25.418H778.036V32.782H772.506C773.346 32.026 773.584 29.87 773.668 27.476ZM785.2 26.51C784.01 26.51 782.904 26.846 782.134 27.462L782.694 28.47C783.268 27.98 784.164 27.672 785.046 27.672C786.376 27.672 787.034 28.33 787.034 29.464V29.73H784.906C782.694 29.73 781.924 30.71 781.924 31.9C781.924 33.188 782.988 34.084 784.668 34.084C785.83 34.084 786.656 33.692 787.104 33.02V34H788.378V29.52C788.378 27.49 787.23 26.51 785.2 26.51ZM784.892 33.048C783.87 33.048 783.254 32.586 783.254 31.844C783.254 31.214 783.632 30.696 784.962 30.696H787.034V31.732C786.698 32.586 785.9 33.048 784.892 33.048ZM796.328 26.58H789.552V27.756H792.268V34H793.612V27.756H796.328V26.58ZM800.348 26.51C799.158 26.51 798.052 26.846 797.282 27.462L797.842 28.47C798.416 27.98 799.312 27.672 800.194 27.672C801.524 27.672 802.182 28.33 802.182 29.464V29.73H800.054C797.842 29.73 797.072 30.71 797.072 31.9C797.072 33.188 798.136 34.084 799.816 34.084C800.978 34.084 801.804 33.692 802.252 33.02V34H803.526V29.52C803.526 27.49 802.378 26.51 800.348 26.51ZM800.04 33.048C799.018 33.048 798.402 32.586 798.402 31.844C798.402 31.214 798.78 30.696 800.11 30.696H802.182V31.732C801.846 32.586 801.048 33.048 800.04 33.048ZM771.302 53H772.646V49.892H776.874V53H778.218V45.58H776.874V48.73H772.646V45.58H771.302V53ZM783.477 45.51C782.287 45.51 781.181 45.846 780.411 46.462L780.971 47.47C781.545 46.98 782.441 46.672 783.323 46.672C784.653 46.672 785.311 47.33 785.311 48.464V48.73H783.183C780.971 48.73 780.201 49.71 780.201 50.9C780.201 52.188 781.265 53.084 782.945 53.084C784.107 53.084 784.933 52.692 785.381 52.02V53H786.655V48.52C786.655 46.49 785.507 45.51 783.477 45.51ZM783.169 52.048C782.147 52.048 781.531 51.586 781.531 50.844C781.531 50.214 781.909 49.696 783.239 49.696H785.311V50.732C784.975 51.586 784.177 52.048 783.169 52.048ZM793.653 45.58V48.968C792.939 49.276 792.211 49.458 791.539 49.458C790.405 49.458 789.705 48.954 789.705 47.904V45.58H788.361V47.988C788.361 49.752 789.453 50.564 791.259 50.564C792.085 50.564 792.897 50.354 793.653 50.004V53H794.997V45.58H793.653ZM800.253 45.51C799.063 45.51 797.957 45.846 797.187 46.462L797.747 47.47C798.321 46.98 799.217 46.672 800.099 46.672C801.429 46.672 802.087 47.33 802.087 48.464V48.73H799.959C797.747 48.73 796.977 49.71 796.977 50.9C796.977 52.188 798.041 53.084 799.721 53.084C800.883 53.084 801.709 52.692 802.157 52.02V53H803.431V48.52C803.431 46.49 802.283 45.51 800.253 45.51ZM799.945 52.048C798.923 52.048 798.307 51.586 798.307 50.844C798.307 50.214 798.685 49.696 800.015 49.696H802.087V50.732C801.751 51.586 800.953 52.048 799.945 52.048ZM806.523 45.58L806.397 48.324C806.299 50.074 806.243 51.894 805.039 51.894C804.941 51.894 804.829 51.88 804.703 51.852L804.619 52.986C804.927 53.07 805.193 53.112 805.445 53.112C807.125 53.112 807.475 51.026 807.601 48.408L807.685 46.756H810.877V53H812.221V45.58H806.523ZM817.466 45.51C816.276 45.51 815.17 45.846 814.4 46.462L814.96 47.47C815.534 46.98 816.43 46.672 817.312 46.672C818.642 46.672 819.3 47.33 819.3 48.464V48.73H817.172C814.96 48.73 814.19 49.71 814.19 50.9C814.19 52.188 815.254 53.084 816.934 53.084C818.096 53.084 818.922 52.692 819.37 52.02V53H820.644V48.52C820.644 46.49 819.496 45.51 817.466 45.51ZM817.158 52.048C816.136 52.048 815.52 51.586 815.52 50.844C815.52 50.214 815.898 49.696 817.228 49.696H819.3V50.732C818.964 51.586 818.166 52.048 817.158 52.048Z" fill="black"/>
<rect x="879" width="1" height="252" fill="#DCDCDC"/>
<path d="M911.422 32.782V24.2H904.534L904.436 27.35C904.338 30.332 904.016 32.698 902.672 32.782H902.196L902.182 36.142H903.484L903.498 34H911.562V36.142H912.864V32.782H911.422ZM905.668 27.476L905.738 25.418H910.036V32.782H904.506C905.346 32.026 905.584 29.87 905.668 27.476ZM915.226 26.58L915.1 29.324C915.002 31.074 914.946 32.894 913.742 32.894C913.644 32.894 913.532 32.88 913.406 32.852L913.322 33.986C913.63 34.07 913.896 34.112 914.148 34.112C915.828 34.112 916.178 32.026 916.304 29.408L916.388 27.756H919.58V34H920.924V26.58H915.226ZM923.523 34H924.755L929.291 28.596V34H930.635V26.58H929.417L924.867 31.984V26.58H923.523V34ZM938.773 26.58H931.997V27.756H934.713V34H936.057V27.756H938.773V26.58ZM946.526 30.332C946.526 28.05 945 26.51 942.858 26.51C940.716 26.51 939.134 28.092 939.134 30.29C939.134 32.502 940.73 34.084 943.124 34.084C944.356 34.084 945.378 33.664 946.05 32.88L945.308 32.012C944.762 32.614 944.034 32.908 943.166 32.908C941.696 32.908 940.646 32.04 940.478 30.738H946.498C946.512 30.612 946.526 30.444 946.526 30.332ZM942.858 27.644C944.16 27.644 945.098 28.526 945.238 29.772H940.478C940.618 28.512 941.57 27.644 942.858 27.644ZM949.16 26.58L949.034 29.324C948.936 31.074 948.88 32.894 947.676 32.894C947.578 32.894 947.466 32.88 947.34 32.852L947.256 33.986C947.564 34.07 947.83 34.112 948.082 34.112C949.762 34.112 950.112 32.026 950.238 29.408L950.322 27.756H953.514V34H954.858V26.58H949.16ZM960.886 29.1L958.8 29.086V26.58H957.456V34L960.676 34.014C962.664 34.028 963.784 33.132 963.784 31.522C963.784 29.996 962.776 29.114 960.886 29.1ZM960.564 32.992L958.8 32.978V30.066L960.564 30.094C961.796 30.108 962.412 30.528 962.412 31.508C962.412 32.502 961.782 33.006 960.564 32.992ZM965.509 34H966.853V30.892H971.081V34H972.425V26.58H971.081V29.73H966.853V26.58H965.509V34ZM978.216 34.084C980.442 34.084 982.066 32.502 982.066 30.29C982.066 28.078 980.442 26.51 978.216 26.51C975.99 26.51 974.352 28.078 974.352 30.29C974.352 32.502 975.99 34.084 978.216 34.084ZM978.216 32.908C976.788 32.908 975.71 31.872 975.71 30.29C975.71 28.708 976.788 27.686 978.216 27.686C979.644 27.686 980.708 28.708 980.708 30.29C980.708 31.872 979.644 32.908 978.216 32.908ZM987.241 34.084C988.571 34.084 989.677 33.524 990.265 32.488L989.243 31.844C988.767 32.572 988.039 32.908 987.227 32.908C985.771 32.908 984.679 31.9 984.679 30.29C984.679 28.708 985.771 27.686 987.227 27.686C988.039 27.686 988.767 28.022 989.243 28.75L990.265 28.092C989.677 27.056 988.571 26.51 987.241 26.51C984.959 26.51 983.321 28.078 983.321 30.29C983.321 32.502 984.959 34.084 987.241 34.084ZM997.439 26.58H990.663V27.756H993.379V34H994.723V27.756H997.439V26.58ZM1002.24 29.1L1000.16 29.086V26.58H998.814V34L1002.03 34.014C1004.02 34.028 1005.14 33.132 1005.14 31.522C1005.14 29.996 1004.13 29.114 1002.24 29.1ZM1001.92 32.992L1000.16 32.978V30.066L1001.92 30.094C1003.15 30.108 1003.77 30.528 1003.77 31.508C1003.77 32.502 1003.14 33.006 1001.92 32.992Z" fill="black"/>
<path d="M319.348 24.2H315.526V34H316.926V31.032H319.348C321.896 31.032 323.436 29.744 323.436 27.616C323.436 25.488 321.896 24.2 319.348 24.2ZM319.306 29.814H316.926V25.418H319.306C321.098 25.418 322.036 26.216 322.036 27.616C322.036 29.016 321.098 29.814 319.306 29.814ZM331.838 30.332C331.838 28.05 330.312 26.51 328.17 26.51C326.028 26.51 324.446 28.092 324.446 30.29C324.446 32.502 326.042 34.084 328.436 34.084C329.668 34.084 330.69 33.664 331.362 32.88L330.62 32.012C330.074 32.614 329.346 32.908 328.478 32.908C327.008 32.908 325.958 32.04 325.79 30.738H331.81C331.824 30.612 331.838 30.444 331.838 30.332ZM328.17 27.644C329.472 27.644 330.41 28.526 330.55 29.772H325.79C325.93 28.512 326.882 27.644 328.17 27.644ZM337.395 25.614C338.753 25.614 339.579 24.942 339.607 23.682H338.669C338.655 24.382 338.151 24.83 337.381 24.83C336.625 24.83 336.121 24.382 336.107 23.682H335.197C335.211 24.942 336.037 25.614 337.395 25.614ZM333.923 34H335.155L339.691 28.596V34H341.035V26.58H339.817L335.267 31.984V26.58H333.923V34ZM349.174 26.58H342.398V27.756H345.114V34H346.458V27.756H349.174V26.58ZM350.548 34H351.78L356.316 28.596V34H357.66V26.58H356.442L351.892 31.984V26.58H350.548V34ZM360.269 34H361.613V30.892H365.841V34H367.185V26.58H365.841V29.73H361.613V26.58H360.269V34ZM375.258 26.58H369.798V34H371.142V27.756H375.258V26.58ZM324.528 45.58V51.824H321.266V45.58H319.922V51.824H316.646V45.58H315.302V53H325.872V45.58H324.528ZM333.858 53H335.44L332.43 49.15L335.244 45.58H333.802L331.394 48.716H329.826V45.58H328.482V53H329.826V49.864H331.366L333.858 53ZM339.781 53.084C342.007 53.084 343.631 51.502 343.631 49.29C343.631 47.078 342.007 45.51 339.781 45.51C337.555 45.51 335.917 47.078 335.917 49.29C335.917 51.502 337.555 53.084 339.781 53.084ZM339.781 51.908C338.353 51.908 337.275 50.872 337.275 49.29C337.275 47.708 338.353 46.686 339.781 46.686C341.209 46.686 342.273 47.708 342.273 49.29C342.273 50.872 341.209 51.908 339.781 51.908ZM346.189 45.58L346.063 48.324C345.965 50.074 345.909 51.894 344.705 51.894C344.607 51.894 344.495 51.88 344.369 51.852L344.285 52.986C344.593 53.07 344.859 53.112 345.111 53.112C346.791 53.112 347.141 51.026 347.267 48.408L347.351 46.756H350.543V53H351.887V45.58H346.189ZM357.832 48.1L355.83 48.086V45.58H354.486V53L357.608 53.014C359.596 53.028 360.716 52.132 360.716 50.522C360.716 48.996 359.708 48.114 357.832 48.1ZM361.822 53H363.166V45.58H361.822V53ZM357.51 51.992L355.83 51.978V49.066L357.51 49.094C358.728 49.108 359.358 49.528 359.358 50.508C359.358 51.502 358.714 52.006 357.51 51.992Z" fill="black"/>
<rect x="291" width="1" height="252" fill="#DCDCDC"/>
<path d="M453.908 34.112C455.434 34.112 456.75 33.58 457.646 32.572L456.736 31.69C455.98 32.488 455.056 32.866 453.978 32.866C451.766 32.866 450.128 31.27 450.128 29.1C450.128 26.93 451.766 25.334 453.978 25.334C455.056 25.334 455.98 25.698 456.736 26.496L457.646 25.614C456.75 24.606 455.434 24.088 453.922 24.088C450.94 24.088 448.728 26.202 448.728 29.1C448.728 31.998 450.94 34.112 453.908 34.112ZM464.676 26.58H457.9V27.756H460.616V34H461.96V27.756H464.676V26.58ZM468.9 34.084C471.126 34.084 472.75 32.502 472.75 30.29C472.75 28.078 471.126 26.51 468.9 26.51C466.674 26.51 465.036 28.078 465.036 30.29C465.036 32.502 466.674 34.084 468.9 34.084ZM468.9 32.908C467.472 32.908 466.394 31.872 466.394 30.29C466.394 28.708 467.472 27.686 468.9 27.686C470.328 27.686 471.392 28.708 471.392 30.29C471.392 31.872 470.328 32.908 468.9 32.908ZM474.691 34H475.923L480.459 28.596V34H481.803V26.58H480.585L476.035 31.984V26.58H474.691V34ZM491.705 26.58L488.709 31.592L485.797 26.58H484.411V34H485.643V28.568L488.387 33.16H488.975L491.747 28.582V34H492.965V26.58H491.705ZM498.759 34.084C500.985 34.084 502.609 32.502 502.609 30.29C502.609 28.078 500.985 26.51 498.759 26.51C496.533 26.51 494.895 28.078 494.895 30.29C494.895 32.502 496.533 34.084 498.759 34.084ZM498.759 32.908C497.331 32.908 496.253 31.872 496.253 30.29C496.253 28.708 497.331 27.686 498.759 27.686C500.187 27.686 501.251 28.708 501.251 30.29C501.251 31.872 500.187 32.908 498.759 32.908ZM507.784 34.084C509.114 34.084 510.22 33.524 510.808 32.488L509.786 31.844C509.31 32.572 508.582 32.908 507.77 32.908C506.314 32.908 505.222 31.9 505.222 30.29C505.222 28.708 506.314 27.686 507.77 27.686C508.582 27.686 509.31 28.022 509.786 28.75L510.808 28.092C510.22 27.056 509.114 26.51 507.784 26.51C505.502 26.51 503.864 28.078 503.864 30.29C503.864 32.502 505.502 34.084 507.784 34.084ZM517.982 26.58H511.206V27.756H513.922V34H515.266V27.756H517.982V26.58ZM522.787 29.1L520.701 29.086V26.58H519.357V34L522.577 34.014C524.565 34.028 525.685 33.132 525.685 31.522C525.685 29.996 524.677 29.114 522.787 29.1ZM522.465 32.992L520.701 32.978V30.066L522.465 30.094C523.697 30.108 524.313 30.528 524.313 31.508C524.313 32.502 523.683 33.006 522.465 32.992Z" fill="black"/>
<rect x="426" width="1" height="252" fill="#DCDCDC"/>
<rect x="1031" width="1" height="252" fill="#DCDCDC"/>
<path d="M1059.91 34.112C1061.43 34.112 1062.75 33.58 1063.65 32.572L1062.74 31.69C1061.98 32.488 1061.06 32.866 1059.98 32.866C1057.77 32.866 1056.13 31.27 1056.13 29.1C1056.13 26.93 1057.77 25.334 1059.98 25.334C1061.06 25.334 1061.98 25.698 1062.74 26.496L1063.65 25.614C1062.75 24.606 1061.43 24.088 1059.92 24.088C1056.94 24.088 1054.73 26.202 1054.73 29.1C1054.73 31.998 1056.94 34.112 1059.91 34.112ZM1068.27 34.084C1069.6 34.084 1070.71 33.524 1071.29 32.488L1070.27 31.844C1069.8 32.572 1069.07 32.908 1068.26 32.908C1066.8 32.908 1065.71 31.9 1065.71 30.29C1065.71 28.708 1066.8 27.686 1068.26 27.686C1069.07 27.686 1069.8 28.022 1070.27 28.75L1071.29 28.092C1070.71 27.056 1069.6 26.51 1068.27 26.51C1065.99 26.51 1064.35 28.078 1064.35 30.29C1064.35 32.502 1065.99 34.084 1068.27 34.084ZM1076.38 29.1L1074.38 29.086V26.58H1073.03V34L1076.16 34.014C1078.14 34.028 1079.26 33.132 1079.26 31.522C1079.26 29.996 1078.26 29.114 1076.38 29.1ZM1080.37 34H1081.71V26.58H1080.37V34ZM1076.06 32.992L1074.38 32.978V30.066L1076.06 30.094C1077.28 30.108 1077.91 30.528 1077.91 31.508C1077.91 32.502 1077.26 33.006 1076.06 32.992ZM1085 26.58L1084.87 29.324C1084.78 31.074 1084.72 32.894 1083.52 32.894C1083.42 32.894 1083.31 32.88 1083.18 32.852L1083.1 33.986C1083.4 34.07 1083.67 34.112 1083.92 34.112C1085.6 34.112 1085.95 32.026 1086.08 29.408L1086.16 27.756H1089.35V34H1090.7V26.58H1085ZM1098.67 34H1100.25L1097.24 30.15L1100.06 26.58H1098.62L1096.21 29.716H1094.64V26.58H1093.3V34H1094.64V30.864H1096.18L1098.67 34ZM1104.17 26.51C1102.98 26.51 1101.88 26.846 1101.11 27.462L1101.67 28.47C1102.24 27.98 1103.14 27.672 1104.02 27.672C1105.35 27.672 1106.01 28.33 1106.01 29.464V29.73H1103.88C1101.67 29.73 1100.9 30.71 1100.9 31.9C1100.9 33.188 1101.96 34.084 1103.64 34.084C1104.8 34.084 1105.63 33.692 1106.08 33.02V34H1107.35V29.52C1107.35 27.49 1106.2 26.51 1104.17 26.51ZM1103.86 33.048C1102.84 33.048 1102.23 32.586 1102.23 31.844C1102.23 31.214 1102.6 30.696 1103.93 30.696H1106.01V31.732C1105.67 32.586 1104.87 33.048 1103.86 33.048Z" fill="black"/>
<path d="M30.936 112.112C33.918 112.112 36.13 109.984 36.13 107.1C36.13 104.216 33.918 102.088 30.936 102.088C27.926 102.088 25.714 104.23 25.714 107.1C25.714 109.97 27.926 112.112 30.936 112.112ZM30.936 110.866C28.738 110.866 27.114 109.27 27.114 107.1C27.114 104.93 28.738 103.334 30.936 103.334C33.106 103.334 34.73 104.93 34.73 107.1C34.73 109.27 33.106 110.866 30.936 110.866ZM38.1692 112H39.5132V108.892H43.7412V112H45.0852V104.58H43.7412V107.73H39.5132V104.58H38.1692V112ZM48.3705 104.58L48.2445 107.324C48.1465 109.074 48.0905 110.894 46.8865 110.894C46.7885 110.894 46.6765 110.88 46.5505 110.852L46.4665 111.986C46.7745 112.07 47.0405 112.112 47.2925 112.112C48.9725 112.112 49.3225 110.026 49.4485 107.408L49.5325 105.756H52.7245V112H54.0685V104.58H48.3705ZM59.3132 104.51C58.1232 104.51 57.0172 104.846 56.2472 105.462L56.8072 106.47C57.3812 105.98 58.2772 105.672 59.1592 105.672C60.4892 105.672 61.1472 106.33 61.1472 107.464V107.73H59.0192C56.8072 107.73 56.0372 108.71 56.0372 109.9C56.0372 111.188 57.1012 112.084 58.7812 112.084C59.9432 112.084 60.7692 111.692 61.2172 111.02V112H62.4912V107.52C62.4912 105.49 61.3432 104.51 59.3132 104.51ZM59.0052 111.048C57.9832 111.048 57.3672 110.586 57.3672 109.844C57.3672 109.214 57.7452 108.696 59.0752 108.696H61.1472V109.732C60.8112 110.586 60.0132 111.048 59.0052 111.048ZM68.3834 103.614C69.7414 103.614 70.5674 102.942 70.5954 101.682H69.6574C69.6434 102.382 69.1394 102.83 68.3694 102.83C67.6134 102.83 67.1094 102.382 67.0954 101.682H66.1854C66.1994 102.942 67.0254 103.614 68.3834 103.614ZM64.9114 112H66.1434L70.6794 106.596V112H72.0234V104.58H70.8054L66.2554 109.984V104.58H64.9114V112ZM74.6321 112H75.9761V108.892H80.2041V112H81.5481V104.58H80.2041V107.73H75.9761V104.58H74.6321V112ZM83.6574 108.738H87.4234V107.576H83.6574V108.738ZM94.8968 112H96.4788L93.4688 108.15L96.2828 104.58H94.8408L92.4328 107.716H90.8648V104.58H89.5208V112H90.8648V108.864H92.4048L94.8968 112ZM102.77 104.58L100.208 110.516L97.6181 104.58H96.2181L99.4941 111.986L99.2561 112.504C98.8921 113.358 98.4861 113.652 97.8421 113.652C97.3381 113.652 96.8761 113.456 96.5121 113.106L95.9381 114.114C96.4001 114.562 97.1281 114.8 97.8421 114.8C98.9761 114.8 99.8301 114.31 100.488 112.742L104.086 104.58H102.77ZM109.396 104.51C108.304 104.51 107.352 104.93 106.75 105.756V104.58H105.462V114.716H106.806V110.88C107.422 111.678 108.346 112.084 109.396 112.084C111.566 112.084 113.148 110.572 113.148 108.29C113.148 106.022 111.566 104.51 109.396 104.51ZM109.284 110.908C107.87 110.908 106.792 109.872 106.792 108.29C106.792 106.722 107.87 105.686 109.284 105.686C110.712 105.686 111.79 106.722 111.79 108.29C111.79 109.872 110.712 110.908 109.284 110.908ZM118.335 112.084C119.665 112.084 120.771 111.524 121.359 110.488L120.337 109.844C119.861 110.572 119.133 110.908 118.321 110.908C116.865 110.908 115.773 109.9 115.773 108.29C115.773 106.708 116.865 105.686 118.321 105.686C119.133 105.686 119.861 106.022 120.337 106.75L121.359 106.092C120.771 105.056 119.665 104.51 118.335 104.51C116.053 104.51 114.415 106.078 114.415 108.29C114.415 110.502 116.053 112.084 118.335 112.084ZM126.859 104.58V112H128.203V105.756H132.389V112H133.733V104.58H126.859ZM139.511 112.084C141.737 112.084 143.361 110.502 143.361 108.29C143.361 106.078 141.737 104.51 139.511 104.51C137.285 104.51 135.647 106.078 135.647 108.29C135.647 110.502 137.285 112.084 139.511 112.084ZM139.511 110.908C138.083 110.908 137.005 109.872 137.005 108.29C137.005 106.708 138.083 105.686 139.511 105.686C140.939 105.686 142.003 106.708 142.003 108.29C142.003 109.872 140.939 110.908 139.511 110.908ZM30.292 121.2H26.47V131H27.87V128.032H30.292C32.84 128.032 34.38 126.744 34.38 124.616C34.38 122.488 32.84 121.2 30.292 121.2ZM30.25 126.814H27.87V122.418H30.25C32.042 122.418 32.98 123.216 32.98 124.616C32.98 126.016 32.042 126.814 30.25 126.814ZM43.4648 121.2V125.414H37.8368V121.2H36.4368V131H37.8368V126.632H43.4648V131H44.8648V121.2H43.4648ZM51.6201 121.2H47.7981V131H49.1981V128.032H51.6201C54.1681 128.032 55.7081 126.744 55.7081 124.616C55.7081 122.488 54.1681 121.2 51.6201 121.2ZM51.5781 126.814H49.1981V122.418H51.5781C53.3701 122.418 54.3081 123.216 54.3081 124.616C54.3081 126.016 53.3701 126.814 51.5781 126.814Z" fill="#0075FF"/>
<path d="M25 113.4H144.005V114.1H25V113.4ZM25 132.4H56.4361V133.1H25V132.4Z" fill="#0075FF"/>
<rect y="169" width="1" height="1176" transform="rotate(-90 0 169)" fill="#DCDCDC"/>
<path d="M601.348 102.2H597.526V112H598.926V109.032H601.348C603.896 109.032 605.436 107.744 605.436 105.616C605.436 103.488 603.896 102.2 601.348 102.2ZM601.306 107.814H598.926V103.418H601.306C603.098 103.418 604.036 104.216 604.036 105.616C604.036 107.016 603.098 107.814 601.306 107.814ZM609.737 104.51C608.547 104.51 607.441 104.846 606.671 105.462L607.231 106.47C607.805 105.98 608.701 105.672 609.583 105.672C610.913 105.672 611.571 106.33 611.571 107.464V107.73H609.443C607.231 107.73 606.461 108.71 606.461 109.9C606.461 111.188 607.525 112.084 609.205 112.084C610.367 112.084 611.193 111.692 611.641 111.02V112H612.915V107.52C612.915 105.49 611.767 104.51 609.737 104.51ZM609.429 111.048C608.407 111.048 607.791 110.586 607.791 109.844C607.791 109.214 608.169 108.696 609.499 108.696H611.571V109.732C611.235 110.586 610.437 111.048 609.429 111.048ZM618.569 112.084C619.899 112.084 621.005 111.524 621.593 110.488L620.571 109.844C620.095 110.572 619.367 110.908 618.555 110.908C617.099 110.908 616.007 109.9 616.007 108.29C616.007 106.708 617.099 105.686 618.555 105.686C619.367 105.686 620.095 106.022 620.571 106.75L621.593 106.092C621.005 105.056 619.899 104.51 618.569 104.51C616.287 104.51 614.649 106.078 614.649 108.29C614.649 110.502 616.287 112.084 618.569 112.084ZM626.458 112.084C627.788 112.084 628.894 111.524 629.482 110.488L628.46 109.844C627.984 110.572 627.256 110.908 626.444 110.908C624.988 110.908 623.896 109.9 623.896 108.29C623.896 106.708 624.988 105.686 626.444 105.686C627.256 105.686 627.984 106.022 628.46 106.75L629.482 106.092C628.894 105.056 627.788 104.51 626.458 104.51C624.176 104.51 622.538 106.078 622.538 108.29C622.538 110.502 624.176 112.084 626.458 112.084ZM635.156 104.51C634.064 104.51 633.112 104.93 632.51 105.756V104.58H631.222V114.716H632.566V110.88C633.182 111.678 634.106 112.084 635.156 112.084C637.326 112.084 638.908 110.572 638.908 108.29C638.908 106.022 637.326 104.51 635.156 104.51ZM635.044 110.908C633.63 110.908 632.552 109.872 632.552 108.29C632.552 106.722 633.63 105.686 635.044 105.686C636.472 105.686 637.55 106.722 637.55 108.29C637.55 109.872 636.472 110.908 635.044 110.908ZM644.039 112.084C646.265 112.084 647.889 110.502 647.889 108.29C647.889 106.078 646.265 104.51 644.039 104.51C641.813 104.51 640.175 106.078 640.175 108.29C640.175 110.502 641.813 112.084 644.039 112.084ZM644.039 110.908C642.611 110.908 641.533 109.872 641.533 108.29C641.533 106.708 642.611 105.686 644.039 105.686C645.467 105.686 646.531 106.708 646.531 108.29C646.531 109.872 645.467 110.908 644.039 110.908ZM654.407 104.58V107.968C653.693 108.276 652.965 108.458 652.293 108.458C651.159 108.458 650.459 107.954 650.459 106.904V104.58H649.115V106.988C649.115 108.752 650.207 109.564 652.013 109.564C652.839 109.564 653.651 109.354 654.407 109.004V112H655.751V104.58H654.407ZM663.737 112H665.319L662.309 108.15L665.123 104.58H663.681L661.273 107.716H659.705V104.58H658.361V112H659.705V108.864H661.245L663.737 112ZM666.728 112H667.96L672.496 106.596V112H673.84V104.58H672.622L668.072 109.984V104.58H666.728V112ZM680.208 112H681.552V108.892H685.78V112H687.124V104.58H685.78V107.73H681.552V104.58H680.208V112ZM696.444 108.332C696.444 106.05 694.918 104.51 692.776 104.51C690.634 104.51 689.052 106.092 689.052 108.29C689.052 110.502 690.648 112.084 693.042 112.084C694.274 112.084 695.296 111.664 695.968 110.88L695.226 110.012C694.68 110.614 693.952 110.908 693.084 110.908C691.614 110.908 690.564 110.04 690.396 108.738H696.416C696.43 108.612 696.444 108.444 696.444 108.332ZM692.776 105.644C694.078 105.644 695.016 106.526 695.156 107.772H690.396C690.536 106.512 691.488 105.644 692.776 105.644ZM703.744 104.58H696.968V105.756H699.684V112H701.028V105.756H703.744V104.58Z" fill="black"/>
<path d="M777.63 106.918C778.582 106.554 779.156 105.798 779.156 104.72C779.156 103.082 777.868 102.2 775.74 102.2H771.526V112H776.006C778.414 112 779.646 111.006 779.646 109.326C779.646 108.052 778.946 107.24 777.63 106.918ZM772.912 103.306H775.642C776.986 103.306 777.742 103.866 777.742 104.916C777.742 105.966 776.986 106.512 775.642 106.512H772.912V103.306ZM775.978 110.894H772.912V107.576H775.978C777.448 107.576 778.232 108.08 778.232 109.214C778.232 110.362 777.448 110.894 775.978 110.894ZM786.193 104.58L786.067 107.324C785.969 109.074 785.913 110.894 784.709 110.894C784.611 110.894 784.499 110.88 784.373 110.852L784.289 111.986C784.597 112.07 784.863 112.112 785.115 112.112C786.795 112.112 787.145 110.026 787.271 107.408L787.355 105.756H790.547V112H791.891V104.58H786.193ZM801.056 104.51C799.11 104.51 797.626 105.756 797.346 107.618H795.834V104.58H794.49V112H795.834V108.864H797.332C797.584 110.768 799.082 112.084 801.056 112.084C803.226 112.084 804.822 110.502 804.822 108.29C804.822 106.064 803.226 104.51 801.056 104.51ZM801.056 110.908C799.67 110.908 798.62 109.886 798.62 108.29C798.62 106.708 799.67 105.686 801.056 105.686C802.428 105.686 803.492 106.708 803.492 108.29C803.492 109.886 802.428 110.908 801.056 110.908ZM810.533 104.832C809.287 104.832 808.237 105.378 807.607 106.33C807.747 104.398 808.657 103.446 810.589 103.026L813.711 102.354L813.515 101.122L810.127 101.878C807.565 102.438 806.319 104.104 806.319 107.17C806.319 110.292 807.733 112.112 810.267 112.112C812.535 112.112 814.103 110.628 814.103 108.444C814.103 106.316 812.633 104.832 810.533 104.832ZM810.295 110.992C808.867 110.992 807.845 109.956 807.845 108.486C807.845 107.016 808.839 106.036 810.295 106.036C811.751 106.036 812.731 107.016 812.731 108.486C812.731 109.956 811.737 110.992 810.295 110.992ZM819.201 112.084C821.427 112.084 823.051 110.502 823.051 108.29C823.051 106.078 821.427 104.51 819.201 104.51C816.975 104.51 815.337 106.078 815.337 108.29C815.337 110.502 816.975 112.084 819.201 112.084ZM819.201 110.908C817.773 110.908 816.695 109.872 816.695 108.29C816.695 106.708 817.773 105.686 819.201 105.686C820.629 105.686 821.693 106.708 821.693 108.29C821.693 109.872 820.629 110.908 819.201 110.908ZM828.463 103.614C829.821 103.614 830.647 102.942 830.675 101.682H829.737C829.723 102.382 829.219 102.83 828.449 102.83C827.693 102.83 827.189 102.382 827.175 101.682H826.265C826.279 102.942 827.105 103.614 828.463 103.614ZM824.991 112H826.223L830.759 106.596V112H832.103V104.58H830.885L826.335 109.984V104.58H824.991V112ZM778.596 123.58L775.6 128.592L772.688 123.58H771.302V131H772.534V125.568L775.278 130.16H775.866L778.638 125.582V131H779.856V123.58H778.596ZM785.65 131.084C787.876 131.084 789.5 129.502 789.5 127.29C789.5 125.078 787.876 123.51 785.65 123.51C783.424 123.51 781.786 125.078 781.786 127.29C781.786 129.502 783.424 131.084 785.65 131.084ZM785.65 129.908C784.222 129.908 783.144 128.872 783.144 127.29C783.144 125.708 784.222 124.686 785.65 124.686C787.078 124.686 788.142 125.708 788.142 127.29C788.142 128.872 787.078 129.908 785.65 129.908ZM798.735 123.58L795.739 128.592L792.827 123.58H791.441V131H792.673V125.568L795.417 130.16H796.005L798.777 125.582V131H799.995V123.58H798.735ZM809.317 127.332C809.317 125.05 807.791 123.51 805.649 123.51C803.507 123.51 801.925 125.092 801.925 127.29C801.925 129.502 803.521 131.084 805.915 131.084C807.147 131.084 808.169 130.664 808.841 129.88L808.099 129.012C807.553 129.614 806.825 129.908 805.957 129.908C804.487 129.908 803.437 129.04 803.269 127.738H809.289C809.303 127.612 809.317 127.444 809.317 127.332ZM805.649 124.644C806.951 124.644 807.889 125.526 808.029 126.772H803.269C803.409 125.512 804.361 124.644 805.649 124.644ZM811.402 131H812.746V127.892H816.974V131H818.318V123.58H816.974V126.73H812.746V123.58H811.402V131ZM826.461 123.58H819.685V124.756H822.401V131H823.745V124.756H826.461V123.58Z" fill="black"/>
<path d="M928.424 106.316L930.986 103.152V102.2H924.518V103.418H929.236L926.772 106.442V107.422H927.556C929.236 107.422 929.978 108.094 929.978 109.13C929.978 110.194 929.138 110.866 927.668 110.866C926.464 110.866 925.372 110.432 924.714 109.816L924.07 110.922C924.896 111.664 926.268 112.112 927.668 112.112C930.16 112.112 931.378 110.768 931.378 109.116C931.378 107.604 930.384 106.498 928.424 106.316ZM944.367 104.58L941.371 109.592L938.459 104.58H937.073V112H938.305V106.568L941.049 111.16H941.637L944.409 106.582V112H945.627V104.58H944.367ZM954.949 108.332C954.949 106.05 953.423 104.51 951.281 104.51C949.139 104.51 947.557 106.092 947.557 108.29C947.557 110.502 949.153 112.084 951.547 112.084C952.779 112.084 953.801 111.664 954.473 110.88L953.731 110.012C953.185 110.614 952.457 110.908 951.589 110.908C950.119 110.908 949.069 110.04 948.901 108.738H954.921C954.935 108.612 954.949 108.444 954.949 108.332ZM951.281 105.644C952.583 105.644 953.521 106.526 953.661 107.772H948.901C949.041 106.512 949.993 105.644 951.281 105.644ZM960.268 112.084C961.598 112.084 962.704 111.524 963.292 110.488L962.27 109.844C961.794 110.572 961.066 110.908 960.254 110.908C958.798 110.908 957.706 109.9 957.706 108.29C957.706 106.708 958.798 105.686 960.254 105.686C961.066 105.686 961.794 106.022 962.27 106.75L963.292 106.092C962.704 105.056 961.598 104.51 960.268 104.51C957.986 104.51 956.348 106.078 956.348 108.29C956.348 110.502 957.986 112.084 960.268 112.084ZM967.502 104.58C965.514 104.58 964.24 105.462 964.24 107.184C964.24 108.36 964.87 109.13 965.976 109.466L964.17 112H965.612L967.236 109.648H967.39H969.546V112H970.75V104.58H967.502ZM965.612 107.226C965.612 106.19 966.312 105.756 967.544 105.756H969.546V108.682H967.488C966.242 108.682 965.612 108.22 965.612 107.226ZM980.12 110.824V104.58H978.776V110.824H974.716V104.58H973.372V112H980.022V113.778H981.296V110.824H980.12ZM985.684 104.51C984.494 104.51 983.388 104.846 982.618 105.462L983.178 106.47C983.752 105.98 984.648 105.672 985.53 105.672C986.86 105.672 987.518 106.33 987.518 107.464V107.73H985.39C983.178 107.73 982.408 108.71 982.408 109.9C982.408 111.188 983.472 112.084 985.152 112.084C986.314 112.084 987.14 111.692 987.588 111.02V112H988.862V107.52C988.862 105.49 987.714 104.51 985.684 104.51ZM985.376 111.048C984.354 111.048 983.738 110.586 983.738 109.844C983.738 109.214 984.116 108.696 985.446 108.696H987.518V109.732C987.182 110.586 986.384 111.048 985.376 111.048Z" fill="black"/>
<path d="M348.198 108.388H346.336V106.26H345.02V108.388H341.254L346.056 102.2H344.544L339.532 108.612V109.592H344.978V112H346.336V109.592H348.198V108.388ZM350.235 112.084C350.739 112.084 351.159 111.678 351.159 111.118C351.159 110.558 350.739 110.166 350.235 110.166C349.717 110.166 349.283 110.558 349.283 111.118C349.283 111.678 349.717 112.084 350.235 112.084ZM355.661 102.088C353.715 102.088 352.203 103.292 352.203 105.182C352.203 106.988 353.603 108.15 355.549 108.15C356.767 108.15 357.803 107.716 358.377 106.862V107.212C358.377 109.662 357.117 110.908 355.129 110.908C354.415 110.908 353.757 110.782 353.239 110.446L352.707 111.538C353.337 111.93 354.219 112.112 355.143 112.112C357.887 112.112 359.777 110.32 359.777 106.974C359.777 103.852 358.293 102.088 355.661 102.088ZM355.787 107.016C354.415 107.016 353.561 106.274 353.561 105.126C353.561 103.964 354.443 103.222 355.717 103.222C357.243 103.222 358.055 104.104 358.055 105.112C358.055 106.19 357.131 107.016 355.787 107.016Z" fill="black"/>
<path d="M367.207 114.716H368.481C367.347 112.728 366.857 110.614 366.857 108.164C366.857 105.714 367.347 103.6 368.481 101.612H367.207C366.143 103.278 365.541 105.588 365.541 108.164C365.541 110.74 366.143 113.022 367.207 114.716ZM369.176 102.2V103.418H371.388V112H372.774V102.2H369.176ZM376.78 110.782L379.776 107.898C381.106 106.624 381.386 105.77 381.386 104.818C381.386 103.138 380.07 102.088 378.026 102.088C376.5 102.088 375.198 102.634 374.442 103.572L375.394 104.398C375.996 103.67 376.85 103.334 377.9 103.334C379.272 103.334 379.986 103.95 379.986 104.958C379.986 105.574 379.79 106.19 378.754 107.198L374.764 111.048V112H381.806V110.782H376.78ZM384.819 110.782L387.815 107.898C389.145 106.624 389.425 105.77 389.425 104.818C389.425 103.138 388.109 102.088 386.065 102.088C384.539 102.088 383.237 102.634 382.481 103.572L383.433 104.398C384.035 103.67 384.889 103.334 385.939 103.334C387.311 103.334 388.025 103.95 388.025 104.958C388.025 105.574 387.829 106.19 386.793 107.198L382.803 111.048V112H389.845V110.782H384.819ZM392.046 114.716C393.124 113.022 393.726 110.74 393.726 108.164C393.726 105.588 393.124 103.278 392.046 101.612H390.772C391.906 103.6 392.41 105.714 392.41 108.164C392.41 110.614 391.906 112.728 390.772 114.716H392.046Z" fill="black" fill-opacity="0.35"/>
<path d="M322 111.667L317.102 114.658L318.434 109.075L314.075 105.342L319.796 104.883L322 99.5833L324.204 104.883L329.926 105.342L325.567 109.075L326.899 114.658L322 111.667Z" fill="#FFE381"/>
<path d="M1055.53 102.2V112H1056.91V103.418H1062.6V112H1063.97V102.2H1055.53ZM1069.98 112.084C1072.2 112.084 1073.83 110.502 1073.83 108.29C1073.83 106.078 1072.2 104.51 1069.98 104.51C1067.75 104.51 1066.11 106.078 1066.11 108.29C1066.11 110.502 1067.75 112.084 1069.98 112.084ZM1069.98 110.908C1068.55 110.908 1067.47 109.872 1067.47 108.29C1067.47 106.708 1068.55 105.686 1069.98 105.686C1071.41 105.686 1072.47 106.708 1072.47 108.29C1072.47 109.872 1071.41 110.908 1069.98 110.908ZM1079 112.084C1080.33 112.084 1081.44 111.524 1082.03 110.488L1081 109.844C1080.53 110.572 1079.8 110.908 1078.99 110.908C1077.53 110.908 1076.44 109.9 1076.44 108.29C1076.44 106.708 1077.53 105.686 1078.99 105.686C1079.8 105.686 1080.53 106.022 1081 106.75L1082.03 106.092C1081.44 105.056 1080.33 104.51 1079 104.51C1076.72 104.51 1075.08 106.078 1075.08 108.29C1075.08 110.502 1076.72 112.084 1079 112.084ZM1090.36 108.332C1090.36 106.05 1088.84 104.51 1086.7 104.51C1084.55 104.51 1082.97 106.092 1082.97 108.29C1082.97 110.502 1084.57 112.084 1086.96 112.084C1088.19 112.084 1089.22 111.664 1089.89 110.88L1089.15 110.012C1088.6 110.614 1087.87 110.908 1087 110.908C1085.53 110.908 1084.48 110.04 1084.32 108.738H1090.34C1090.35 108.612 1090.36 108.444 1090.36 108.332ZM1086.7 105.644C1088 105.644 1088.94 106.526 1089.08 107.772H1084.32C1084.46 106.512 1085.41 105.644 1086.7 105.644ZM1097.66 104.58H1090.89V105.756H1093.6V112H1094.95V105.756H1097.66V104.58ZM1099.04 112H1100.27L1104.81 106.596V112H1106.15V104.58H1104.93L1100.38 109.984V104.58H1099.04V112ZM1114.29 104.58H1107.51V105.756H1110.23V112H1111.57V105.756H1114.29V104.58ZM1119.09 107.1L1117.01 107.086V104.58H1115.66V112L1118.88 112.014C1120.87 112.028 1121.99 111.132 1121.99 109.522C1121.99 107.996 1120.98 107.114 1119.09 107.1ZM1118.77 110.992L1117.01 110.978V108.066L1118.77 108.094C1120 108.108 1120.62 108.528 1120.62 109.508C1120.62 110.502 1119.99 111.006 1118.77 110.992Z" fill="#0075FF"/>
<path d="M1054 113.4H1122.41V114.1H1054V113.4Z" fill="#0075FF"/>
<path d="M1132 111.825L1135.82 108L1132 104.175L1133.18 103L1138.18 108L1133.18 113L1132 111.825Z" fill="#0075FF"/>
<path d="M198.554 132.2V136.414H192.926V132.2H191.526V142H192.926V137.632H198.554V142H199.954V132.2H198.554ZM209.492 138.332C209.492 136.05 207.966 134.51 205.824 134.51C203.682 134.51 202.1 136.092 202.1 138.29C202.1 140.502 203.696 142.084 206.09 142.084C207.322 142.084 208.344 141.664 209.016 140.88L208.274 140.012C207.728 140.614 207 140.908 206.132 140.908C204.662 140.908 203.612 140.04 203.444 138.738H209.464C209.478 138.612 209.492 138.444 209.492 138.332ZM205.824 135.644C207.126 135.644 208.064 136.526 208.204 137.772H203.444C203.584 136.512 204.536 135.644 205.824 135.644ZM216.793 134.58H210.017V135.756H212.733V142H214.077V135.756H216.793V134.58ZM221.017 142.084C223.243 142.084 224.867 140.502 224.867 138.29C224.867 136.078 223.243 134.51 221.017 134.51C218.791 134.51 217.153 136.078 217.153 138.29C217.153 140.502 218.791 142.084 221.017 142.084ZM221.017 140.908C219.589 140.908 218.511 139.872 218.511 138.29C218.511 136.708 219.589 135.686 221.017 135.686C222.445 135.686 223.509 136.708 223.509 138.29C223.509 139.872 222.445 140.908 221.017 140.908ZM227.425 134.58L227.299 137.324C227.201 139.074 227.145 140.894 225.941 140.894C225.843 140.894 225.731 140.88 225.605 140.852L225.521 141.986C225.829 142.07 226.095 142.112 226.347 142.112C228.027 142.112 228.377 140.026 228.503 137.408L228.587 135.756H231.779V142H233.123V134.58H227.425ZM238.9 142.084C241.126 142.084 242.75 140.502 242.75 138.29C242.75 136.078 241.126 134.51 238.9 134.51C236.674 134.51 235.036 136.078 235.036 138.29C235.036 140.502 236.674 142.084 238.9 142.084ZM238.9 140.908C237.472 140.908 236.394 139.872 236.394 138.29C236.394 136.708 237.472 135.686 238.9 135.686C240.328 135.686 241.392 136.708 241.392 138.29C241.392 139.872 240.328 140.908 238.9 140.908ZM250.151 134.58H244.691V142H246.035V135.756H250.151V134.58ZM251.527 142H252.759L257.295 136.596V142H258.639V134.58H257.421L252.871 139.984V134.58H251.527V142ZM263.949 134.58C261.961 134.58 260.687 135.462 260.687 137.184C260.687 138.36 261.317 139.13 262.423 139.466L260.617 142H262.059L263.683 139.648H263.837H265.993V142H267.197V134.58H263.949ZM262.059 137.226C262.059 136.19 262.759 135.756 263.991 135.756H265.993V138.682H263.935C262.689 138.682 262.059 138.22 262.059 137.226Z" fill="black"/>
<path d="M190.5 114C190.5 107.096 196.096 101.5 203 101.5H253.5C259.023 101.5 263.5 105.977 263.5 111.5C263.5 117.023 259.023 121.5 253.5 121.5H190.5V114Z" fill="white" stroke="#DEDEDE"/>
<path d="M207.914 109.69H209.182V111.661H211.353V109.69H212.621V114.786H211.353V112.719H209.182V114.786H207.914V109.69Z" fill="black"/>
<path d="M216.084 114.902C215.738 114.902 215.408 114.851 215.094 114.749C214.787 114.64 214.518 114.479 214.287 114.268C214.056 114.05 213.874 113.778 213.739 113.451C213.605 113.117 213.538 112.73 213.538 112.287V112.095C213.538 111.672 213.602 111.303 213.73 110.989C213.858 110.675 214.034 110.416 214.258 110.21C214.482 109.999 214.742 109.842 215.036 109.739C215.331 109.63 215.648 109.576 215.988 109.576C216.788 109.576 217.397 109.787 217.813 110.21C218.229 110.634 218.438 111.246 218.438 112.047V112.585H214.835C214.841 112.81 214.88 113.005 214.95 113.172C215.02 113.332 215.113 113.463 215.229 113.566C215.344 113.669 215.475 113.745 215.622 113.797C215.776 113.842 215.93 113.864 216.084 113.864C216.41 113.864 216.657 113.816 216.823 113.72C216.99 113.624 217.109 113.483 217.179 113.297H218.342C218.239 113.829 217.986 114.229 217.583 114.499C217.179 114.768 216.679 114.902 216.084 114.902ZM216.036 110.614C215.888 110.614 215.741 110.634 215.594 110.672C215.453 110.71 215.328 110.771 215.219 110.855C215.11 110.938 215.02 111.05 214.95 111.191C214.88 111.332 214.841 111.502 214.835 111.701H217.208C217.201 111.489 217.166 111.313 217.102 111.172C217.044 111.031 216.961 110.919 216.852 110.835C216.75 110.752 216.628 110.694 216.487 110.662C216.346 110.63 216.196 110.614 216.036 110.614Z" fill="black"/>
<path d="M220.497 110.748H218.873V109.69H223.389V110.748H221.765V114.786H220.497V110.748Z" fill="black"/>
<path d="M226.367 114.902C226.021 114.902 225.691 114.851 225.377 114.749C225.07 114.64 224.801 114.476 224.57 114.258C224.339 114.04 224.157 113.768 224.022 113.441C223.888 113.114 223.821 112.73 223.821 112.287V112.095C223.821 111.678 223.888 111.313 224.022 110.999C224.157 110.685 224.339 110.422 224.57 110.21C224.801 109.999 225.07 109.842 225.377 109.739C225.691 109.63 226.021 109.576 226.367 109.576C226.712 109.576 227.039 109.63 227.347 109.739C227.654 109.842 227.923 109.999 228.154 110.21C228.391 110.422 228.576 110.685 228.711 110.999C228.845 111.313 228.913 111.678 228.913 112.095V112.287C228.913 112.723 228.845 113.105 228.711 113.431C228.576 113.758 228.391 114.031 228.154 114.249C227.923 114.467 227.654 114.63 227.347 114.739C227.039 114.848 226.712 114.902 226.367 114.902ZM226.367 113.826C226.725 113.826 227.023 113.697 227.26 113.441C227.504 113.185 227.625 112.8 227.625 112.287V112.095C227.625 111.627 227.504 111.271 227.26 111.028C227.023 110.778 226.725 110.653 226.367 110.653C226.002 110.653 225.7 110.778 225.463 111.028C225.226 111.271 225.108 111.627 225.108 112.095V112.287C225.108 112.806 225.226 113.194 225.463 113.451C225.7 113.701 226.002 113.826 226.367 113.826Z" fill="black"/>
<path d="M229.776 114.901C229.725 114.901 229.661 114.898 229.584 114.892C229.507 114.892 229.443 114.885 229.392 114.873V113.728C229.424 113.735 229.472 113.738 229.536 113.738C229.657 113.738 229.763 113.703 229.853 113.632C229.943 113.555 230.016 113.427 230.074 113.248C230.138 113.068 230.183 112.831 230.208 112.536C230.24 112.235 230.256 111.863 230.256 111.421V109.69H234.292V114.786H233.023V110.748H231.429V111.613C231.429 112.273 231.393 112.818 231.323 113.248C231.259 113.671 231.156 114.004 231.015 114.248C230.881 114.491 230.708 114.661 230.497 114.757C230.292 114.853 230.051 114.901 229.776 114.901Z" fill="black"/>
<path d="M237.748 114.902C237.402 114.902 237.072 114.851 236.758 114.749C236.451 114.64 236.182 114.476 235.951 114.258C235.721 114.04 235.538 113.768 235.404 113.441C235.269 113.114 235.202 112.73 235.202 112.287V112.095C235.202 111.678 235.269 111.313 235.404 110.999C235.538 110.685 235.721 110.422 235.951 110.21C236.182 109.999 236.451 109.842 236.758 109.739C237.072 109.63 237.402 109.576 237.748 109.576C238.094 109.576 238.42 109.63 238.728 109.739C239.035 109.842 239.304 109.999 239.535 110.21C239.772 110.422 239.958 110.685 240.092 110.999C240.227 111.313 240.294 111.678 240.294 112.095V112.287C240.294 112.723 240.227 113.105 240.092 113.431C239.958 113.758 239.772 114.031 239.535 114.249C239.304 114.467 239.035 114.63 238.728 114.739C238.42 114.848 238.094 114.902 237.748 114.902ZM237.748 113.826C238.107 113.826 238.404 113.697 238.641 113.441C238.885 113.185 239.006 112.8 239.006 112.287V112.095C239.006 111.627 238.885 111.271 238.641 111.028C238.404 110.778 238.107 110.653 237.748 110.653C237.383 110.653 237.082 110.778 236.845 111.028C236.608 111.271 236.489 111.627 236.489 112.095V112.287C236.489 112.806 236.608 113.194 236.845 113.451C237.082 113.701 237.383 113.826 237.748 113.826Z" fill="black"/>
<path d="M241.299 109.69H244.95V110.748H242.567V114.786H241.299V109.69Z" fill="black"/>
<path d="M245.716 109.69H246.984V112.959L249.252 109.69H250.424V114.786H249.156V111.517L246.888 114.786H245.716V109.69Z" fill="black"/>
<path d="M252.608 112.873C252.218 112.744 251.933 112.552 251.753 112.296C251.574 112.039 251.484 111.738 251.484 111.392C251.484 111.142 251.526 110.914 251.609 110.709C251.699 110.498 251.83 110.318 252.003 110.171C252.176 110.017 252.394 109.899 252.657 109.815C252.926 109.732 253.239 109.69 253.598 109.69H256V114.786H254.732V113.026H253.819L252.714 114.786H251.292L252.608 112.873ZM252.753 111.392C252.753 111.61 252.823 111.77 252.964 111.873C253.111 111.975 253.307 112.027 253.55 112.027H254.732V110.748H253.55C253.307 110.748 253.111 110.802 252.964 110.911C252.823 111.014 252.753 111.174 252.753 111.392Z" fill="black"/>
<path fill-rule="evenodd" clip-rule="evenodd" d="M199.639 112.335C199.599 112.332 199.558 112.331 199.517 112.331C198.679 112.331 198 113.01 198 113.847C198 114.685 198.679 115.364 199.517 115.364C200.354 115.364 201.033 114.685 201.033 113.847C201.033 113.783 201.029 113.719 201.021 113.657C200.304 113.6 199.728 113.043 199.639 112.335Z" fill="#5D00F5"/>
<path fill-rule="evenodd" clip-rule="evenodd" d="M201.033 110.517C201.033 109.679 200.354 109 199.517 109C198.679 109 198 109.679 198 110.517C198 111.354 198.679 112.033 199.517 112.033C199.555 112.033 199.594 112.032 199.632 112.029C199.688 111.283 200.283 110.688 201.029 110.632C201.032 110.594 201.033 110.555 201.033 110.517Z" fill="#EB236B"/>
<path fill-rule="evenodd" clip-rule="evenodd" d="M202.656 112.021C202.718 112.029 202.782 112.033 202.846 112.033C203.684 112.033 204.363 111.354 204.363 110.517C204.363 109.679 203.684 109 202.846 109C202.008 109 201.329 109.679 201.329 110.517C201.329 110.558 201.331 110.599 201.334 110.639C202.042 110.728 202.599 111.304 202.656 112.021Z" fill="#4BD0A0"/>
<path fill-rule="evenodd" clip-rule="evenodd" d="M201.342 113.649C201.334 113.714 201.329 113.78 201.329 113.847C201.329 114.685 202.008 115.364 202.846 115.364C203.684 115.364 204.363 114.685 204.363 113.847C204.363 113.01 203.684 112.331 202.846 112.331C202.779 112.331 202.713 112.335 202.648 112.343C202.56 113.023 202.022 113.561 201.342 113.649Z" fill="#0066FF"/>
<path d="M475.896 111.608L479.32 108.312C480.84 106.856 481.16 105.88 481.16 104.792C481.16 102.872 479.656 101.672 477.32 101.672C475.576 101.672 474.088 102.296 473.224 103.368L474.312 104.312C475 103.48 475.976 103.096 477.176 103.096C478.744 103.096 479.56 103.8 479.56 104.952C479.56 105.656 479.336 106.36 478.152 107.512L473.592 111.912V113H481.64V111.608H475.896ZM487.244 106.504L490.172 102.888V101.8H482.78V103.192H488.172L485.356 106.648V107.768H486.252C488.172 107.768 489.02 108.536 489.02 109.72C489.02 110.936 488.06 111.704 486.38 111.704C485.004 111.704 483.756 111.208 483.004 110.504L482.268 111.768C483.212 112.616 484.78 113.128 486.38 113.128C489.228 113.128 490.62 111.592 490.62 109.704C490.62 107.976 489.484 106.712 487.244 106.504ZM506.153 108.872H504.025V106.44H502.521V108.872H498.217L503.705 101.8H501.977L496.249 109.128V110.248H502.473V113H504.025V110.248H506.153V108.872ZM511.688 113.128C514.296 113.128 516.248 111.048 516.248 107.4C516.248 103.752 514.296 101.672 511.688 101.672C509.064 101.672 507.112 103.752 507.112 107.4C507.112 111.048 509.064 113.128 511.688 113.128ZM511.688 111.704C509.928 111.704 508.712 110.264 508.712 107.4C508.712 104.536 509.928 103.096 511.688 103.096C513.432 103.096 514.648 104.536 514.648 107.4C514.648 110.264 513.432 111.704 511.688 111.704ZM522.36 113.128C524.968 113.128 526.92 111.048 526.92 107.4C526.92 103.752 524.968 101.672 522.36 101.672C519.736 101.672 517.784 103.752 517.784 107.4C517.784 111.048 519.736 113.128 522.36 113.128ZM522.36 111.704C520.6 111.704 519.384 110.264 519.384 107.4C519.384 104.536 520.6 103.096 522.36 103.096C524.104 103.096 525.32 104.536 525.32 107.4C525.32 110.264 524.104 111.704 522.36 111.704ZM538.496 109.272C541.376 109.272 543.152 107.96 543.152 105.528C543.152 103.112 541.376 101.8 538.496 101.8H534.096V110.216H532.464V111.128H534.096V113H535.712V111.128H539.264V110.216H535.712V109.272H538.496ZM541.536 105.544C541.536 107.064 540.448 107.944 538.496 107.944H535.712V103.192H538.496C540.448 103.192 541.536 104.024 541.536 105.544Z" fill="black"/>
<path d="M453.068 107.994C453.461 107.994 453.841 107.969 454.201 107.922V103.977C453.841 103.93 453.461 103.905 453.068 103.905C450.821 103.905 449 104.73 449 105.749V106.149C449 107.168 450.821 107.994 453.068 107.994Z" fill="black"/>
<path d="M453.068 110.054C453.461 110.054 453.841 110.029 454.201 109.981V108.825C453.841 108.872 453.461 108.898 453.068 108.898C451.107 108.898 449.47 108.269 449.086 107.431C449.03 107.553 449 107.679 449 107.809V108.209C449 109.228 450.821 110.054 453.068 110.054Z" fill="black"/>
<path d="M454.201 110.975V110.885C453.841 110.932 453.461 110.958 453.068 110.958C451.107 110.958 449.47 110.329 449.086 109.491C449.03 109.613 449 109.739 449 109.869V110.269C449 111.288 450.821 112.114 453.068 112.114C453.517 112.114 453.949 112.081 454.353 112.02C454.253 111.815 454.201 111.599 454.201 111.375V110.975Z" fill="black"/>
<path d="M458.932 100.78C456.686 100.78 454.865 101.606 454.865 102.625V103.025C454.865 104.044 456.686 104.87 458.932 104.87C461.179 104.87 463 104.044 463 103.025V102.625C463 101.606 461.179 100.78 458.932 100.78Z" fill="black"/>
<path d="M458.932 105.774C456.972 105.774 455.335 105.144 454.95 104.307C454.894 104.429 454.865 104.555 454.865 104.684V105.085C454.865 106.103 456.686 106.929 458.932 106.929C461.179 106.929 463 106.103 463 105.085V104.684C463 104.555 462.97 104.429 462.914 104.307C462.53 105.144 460.893 105.774 458.932 105.774Z" fill="black"/>
<path d="M458.932 107.833C456.972 107.833 455.335 107.204 454.95 106.366C454.894 106.488 454.865 106.615 454.865 106.744V107.144C454.865 108.163 456.686 108.989 458.932 108.989C461.179 108.989 463 108.163 463 107.144V106.744C463 106.615 462.97 106.488 462.914 106.366C462.53 107.204 460.893 107.833 458.932 107.833Z" fill="black"/>
<path d="M458.932 110.004C456.972 110.004 455.335 109.375 454.95 108.537C454.894 108.659 454.865 108.786 454.865 108.915V109.315C454.865 110.334 456.686 111.16 458.932 111.16C461.179 111.16 463 110.334 463 109.315V108.915C463 108.786 462.97 108.659 462.914 108.537C462.53 109.375 460.893 110.004 458.932 110.004Z" fill="black"/>
<path d="M458.932 112.064C456.972 112.064 455.335 111.435 454.95 110.597C454.894 110.719 454.865 110.845 454.865 110.975V111.375C454.865 112.394 456.686 113.22 458.932 113.22C461.179 113.22 463 112.394 463 111.375V110.975C463 110.845 462.97 110.719 462.914 110.597C462.53 111.435 460.893 112.064 458.932 112.064Z" fill="black"/>
<path d="M910.138 108.06L908.465 106.805V104.249C908.465 103.992 908.257 103.784 908 103.784C907.743 103.784 907.535 103.992 907.535 104.249V107.037C907.535 107.184 907.604 107.322 907.721 107.409L909.58 108.803C909.664 108.866 909.761 108.896 909.859 108.896C910 108.896 910.14 108.833 910.231 108.71C910.385 108.505 910.343 108.214 910.138 108.06Z" fill="black"/>
<path d="M908 101C904.691 101 902 103.691 902 107C902 110.309 904.691 113 908 113C911.309 113 914 110.309 914 107C914 103.691 911.309 101 908 101ZM908 112.07C905.204 112.07 902.93 109.796 902.93 107C902.93 104.204 905.204 101.93 908 101.93C910.796 101.93 913.07 104.204 913.07 107C913.07 109.796 910.796 112.07 908 112.07Z" fill="black"/>
<path d="M30.936 196.112C33.918 196.112 36.13 193.984 36.13 191.1C36.13 188.216 33.918 186.088 30.936 186.088C27.926 186.088 25.714 188.23 25.714 191.1C25.714 193.97 27.926 196.112 30.936 196.112ZM30.936 194.866C28.738 194.866 27.114 193.27 27.114 191.1C27.114 188.93 28.738 187.334 30.936 187.334C33.106 187.334 34.73 188.93 34.73 191.1C34.73 193.27 33.106 194.866 30.936 194.866ZM38.1692 196H39.5132V192.892H43.7412V196H45.0852V188.58H43.7412V191.73H39.5132V188.58H38.1692V196ZM48.3705 188.58L48.2445 191.324C48.1465 193.074 48.0905 194.894 46.8865 194.894C46.7885 194.894 46.6765 194.88 46.5505 194.852L46.4665 195.986C46.7745 196.07 47.0405 196.112 47.2925 196.112C48.9725 196.112 49.3225 194.026 49.4485 191.408L49.5325 189.756H52.7245V196H54.0685V188.58H48.3705ZM59.3132 188.51C58.1232 188.51 57.0172 188.846 56.2472 189.462L56.8072 190.47C57.3812 189.98 58.2772 189.672 59.1592 189.672C60.4892 189.672 61.1472 190.33 61.1472 191.464V191.73H59.0192C56.8072 191.73 56.0372 192.71 56.0372 193.9C56.0372 195.188 57.1012 196.084 58.7812 196.084C59.9432 196.084 60.7692 195.692 61.2172 195.02V196H62.4912V191.52C62.4912 189.49 61.3432 188.51 59.3132 188.51ZM59.0052 195.048C57.9832 195.048 57.3672 194.586 57.3672 193.844C57.3672 193.214 57.7452 192.696 59.0752 192.696H61.1472V193.732C60.8112 194.586 60.0132 195.048 59.0052 195.048ZM68.3834 187.614C69.7414 187.614 70.5674 186.942 70.5954 185.682H69.6574C69.6434 186.382 69.1394 186.83 68.3694 186.83C67.6134 186.83 67.1094 186.382 67.0954 185.682H66.1854C66.1994 186.942 67.0254 187.614 68.3834 187.614ZM64.9114 196H66.1434L70.6794 190.596V196H72.0234V188.58H70.8054L66.2554 193.984V188.58H64.9114V196ZM74.6321 196H75.9761V192.892H80.2041V196H81.5481V188.58H80.2041V191.73H75.9761V188.58H74.6321V196ZM83.6574 192.738H87.4234V191.576H83.6574V192.738ZM94.8968 196H96.4788L93.4688 192.15L96.2828 188.58H94.8408L92.4328 191.716H90.8648V188.58H89.5208V196H90.8648V192.864H92.4048L94.8968 196ZM102.77 188.58L100.208 194.516L97.6181 188.58H96.2181L99.4941 195.986L99.2561 196.504C98.8921 197.358 98.4861 197.652 97.8421 197.652C97.3381 197.652 96.8761 197.456 96.5121 197.106L95.9381 198.114C96.4001 198.562 97.1281 198.8 97.8421 198.8C98.9761 198.8 99.8301 198.31 100.488 196.742L104.086 188.58H102.77ZM109.396 188.51C108.304 188.51 107.352 188.93 106.75 189.756V188.58H105.462V198.716H106.806V194.88C107.422 195.678 108.346 196.084 109.396 196.084C111.566 196.084 113.148 194.572 113.148 192.29C113.148 190.022 111.566 188.51 109.396 188.51ZM109.284 194.908C107.87 194.908 106.792 193.872 106.792 192.29C106.792 190.722 107.87 189.686 109.284 189.686C110.712 189.686 111.79 190.722 111.79 192.29C111.79 193.872 110.712 194.908 109.284 194.908ZM118.335 196.084C119.665 196.084 120.771 195.524 121.359 194.488L120.337 193.844C119.861 194.572 119.133 194.908 118.321 194.908C116.865 194.908 115.773 193.9 115.773 192.29C115.773 190.708 116.865 189.686 118.321 189.686C119.133 189.686 119.861 190.022 120.337 190.75L121.359 190.092C120.771 189.056 119.665 188.51 118.335 188.51C116.053 188.51 114.415 190.078 114.415 192.29C114.415 194.502 116.053 196.084 118.335 196.084ZM126.859 188.58V196H128.203V189.756H132.389V196H133.733V188.58H126.859ZM139.511 196.084C141.737 196.084 143.361 194.502 143.361 192.29C143.361 190.078 141.737 188.51 139.511 188.51C137.285 188.51 135.647 190.078 135.647 192.29C135.647 194.502 137.285 196.084 139.511 196.084ZM139.511 194.908C138.083 194.908 137.005 193.872 137.005 192.29C137.005 190.708 138.083 189.686 139.511 189.686C140.939 189.686 142.003 190.708 142.003 192.29C142.003 193.872 140.939 194.908 139.511 194.908ZM30.292 205.2H26.47V215H27.87V212.032H30.292C32.84 212.032 34.38 210.744 34.38 208.616C34.38 206.488 32.84 205.2 30.292 205.2ZM30.25 210.814H27.87V206.418H30.25C32.042 206.418 32.98 207.216 32.98 208.616C32.98 210.016 32.042 210.814 30.25 210.814ZM43.4648 205.2V209.414H37.8368V205.2H36.4368V215H37.8368V210.632H43.4648V215H44.8648V205.2H43.4648ZM51.6201 205.2H47.7981V215H49.1981V212.032H51.6201C54.1681 212.032 55.7081 210.744 55.7081 208.616C55.7081 206.488 54.1681 205.2 51.6201 205.2ZM51.5781 210.814H49.1981V206.418H51.5781C53.3701 206.418 54.3081 207.216 54.3081 208.616C54.3081 210.016 53.3701 210.814 51.5781 210.814Z" fill="#0075FF"/>
<path d="M25 197.4H144.005V198.1H25V197.4ZM25 216.4H56.4361V217.1H25V216.4Z" fill="#0075FF"/>
<path d="M601.348 186.2H597.526V196H598.926V193.032H601.348C603.896 193.032 605.436 191.744 605.436 189.616C605.436 187.488 603.896 186.2 601.348 186.2ZM601.306 191.814H598.926V187.418H601.306C603.098 187.418 604.036 188.216 604.036 189.616C604.036 191.016 603.098 191.814 601.306 191.814ZM609.737 188.51C608.547 188.51 607.441 188.846 606.671 189.462L607.231 190.47C607.805 189.98 608.701 189.672 609.583 189.672C610.913 189.672 611.571 190.33 611.571 191.464V191.73H609.443C607.231 191.73 606.461 192.71 606.461 193.9C606.461 195.188 607.525 196.084 609.205 196.084C610.367 196.084 611.193 195.692 611.641 195.02V196H612.915V191.52C612.915 189.49 611.767 188.51 609.737 188.51ZM609.429 195.048C608.407 195.048 607.791 194.586 607.791 193.844C607.791 193.214 608.169 192.696 609.499 192.696H611.571V193.732C611.235 194.586 610.437 195.048 609.429 195.048ZM618.569 196.084C619.899 196.084 621.005 195.524 621.593 194.488L620.571 193.844C620.095 194.572 619.367 194.908 618.555 194.908C617.099 194.908 616.007 193.9 616.007 192.29C616.007 190.708 617.099 189.686 618.555 189.686C619.367 189.686 620.095 190.022 620.571 190.75L621.593 190.092C621.005 189.056 619.899 188.51 618.569 188.51C616.287 188.51 614.649 190.078 614.649 192.29C614.649 194.502 616.287 196.084 618.569 196.084ZM626.458 196.084C627.788 196.084 628.894 195.524 629.482 194.488L628.46 193.844C627.984 194.572 627.256 194.908 626.444 194.908C624.988 194.908 623.896 193.9 623.896 192.29C623.896 190.708 624.988 189.686 626.444 189.686C627.256 189.686 627.984 190.022 628.46 190.75L629.482 190.092C628.894 189.056 627.788 188.51 626.458 188.51C624.176 188.51 622.538 190.078 622.538 192.29C622.538 194.502 624.176 196.084 626.458 196.084ZM635.156 188.51C634.064 188.51 633.112 188.93 632.51 189.756V188.58H631.222V198.716H632.566V194.88C633.182 195.678 634.106 196.084 635.156 196.084C637.326 196.084 638.908 194.572 638.908 192.29C638.908 190.022 637.326 188.51 635.156 188.51ZM635.044 194.908C633.63 194.908 632.552 193.872 632.552 192.29C632.552 190.722 633.63 189.686 635.044 189.686C636.472 189.686 637.55 190.722 637.55 192.29C637.55 193.872 636.472 194.908 635.044 194.908ZM644.039 196.084C646.265 196.084 647.889 194.502 647.889 192.29C647.889 190.078 646.265 188.51 644.039 188.51C641.813 188.51 640.175 190.078 640.175 192.29C640.175 194.502 641.813 196.084 644.039 196.084ZM644.039 194.908C642.611 194.908 641.533 193.872 641.533 192.29C641.533 190.708 642.611 189.686 644.039 189.686C645.467 189.686 646.531 190.708 646.531 192.29C646.531 193.872 645.467 194.908 644.039 194.908ZM654.407 188.58V191.968C653.693 192.276 652.965 192.458 652.293 192.458C651.159 192.458 650.459 191.954 650.459 190.904V188.58H649.115V190.988C649.115 192.752 650.207 193.564 652.013 193.564C652.839 193.564 653.651 193.354 654.407 193.004V196H655.751V188.58H654.407ZM663.737 196H665.319L662.309 192.15L665.123 188.58H663.681L661.273 191.716H659.705V188.58H658.361V196H659.705V192.864H661.245L663.737 196ZM666.728 196H667.96L672.496 190.596V196H673.84V188.58H672.622L668.072 193.984V188.58H666.728V196ZM680.208 196H681.552V192.892H685.78V196H687.124V188.58H685.78V191.73H681.552V188.58H680.208V196ZM696.444 192.332C696.444 190.05 694.918 188.51 692.776 188.51C690.634 188.51 689.052 190.092 689.052 192.29C689.052 194.502 690.648 196.084 693.042 196.084C694.274 196.084 695.296 195.664 695.968 194.88L695.226 194.012C694.68 194.614 693.952 194.908 693.084 194.908C691.614 194.908 690.564 194.04 690.396 192.738H696.416C696.43 192.612 696.444 192.444 696.444 192.332ZM692.776 189.644C694.078 189.644 695.016 190.526 695.156 191.772H690.396C690.536 190.512 691.488 189.644 692.776 189.644ZM703.744 188.58H696.968V189.756H699.684V196H701.028V189.756H703.744V188.58Z" fill="black"/>
<path d="M777.63 190.918C778.582 190.554 779.156 189.798 779.156 188.72C779.156 187.082 777.868 186.2 775.74 186.2H771.526V196H776.006C778.414 196 779.646 195.006 779.646 193.326C779.646 192.052 778.946 191.24 777.63 190.918ZM772.912 187.306H775.642C776.986 187.306 777.742 187.866 777.742 188.916C777.742 189.966 776.986 190.512 775.642 190.512H772.912V187.306ZM775.978 194.894H772.912V191.576H775.978C777.448 191.576 778.232 192.08 778.232 193.214C778.232 194.362 777.448 194.894 775.978 194.894ZM786.193 188.58L786.067 191.324C785.969 193.074 785.913 194.894 784.709 194.894C784.611 194.894 784.499 194.88 784.373 194.852L784.289 195.986C784.597 196.07 784.863 196.112 785.115 196.112C786.795 196.112 787.145 194.026 787.271 191.408L787.355 189.756H790.547V196H791.891V188.58H786.193ZM801.056 188.51C799.11 188.51 797.626 189.756 797.346 191.618H795.834V188.58H794.49V196H795.834V192.864H797.332C797.584 194.768 799.082 196.084 801.056 196.084C803.226 196.084 804.822 194.502 804.822 192.29C804.822 190.064 803.226 188.51 801.056 188.51ZM801.056 194.908C799.67 194.908 798.62 193.886 798.62 192.29C798.62 190.708 799.67 189.686 801.056 189.686C802.428 189.686 803.492 190.708 803.492 192.29C803.492 193.886 802.428 194.908 801.056 194.908ZM810.533 188.832C809.287 188.832 808.237 189.378 807.607 190.33C807.747 188.398 808.657 187.446 810.589 187.026L813.711 186.354L813.515 185.122L810.127 185.878C807.565 186.438 806.319 188.104 806.319 191.17C806.319 194.292 807.733 196.112 810.267 196.112C812.535 196.112 814.103 194.628 814.103 192.444C814.103 190.316 812.633 188.832 810.533 188.832ZM810.295 194.992C808.867 194.992 807.845 193.956 807.845 192.486C807.845 191.016 808.839 190.036 810.295 190.036C811.751 190.036 812.731 191.016 812.731 192.486C812.731 193.956 811.737 194.992 810.295 194.992ZM819.201 196.084C821.427 196.084 823.051 194.502 823.051 192.29C823.051 190.078 821.427 188.51 819.201 188.51C816.975 188.51 815.337 190.078 815.337 192.29C815.337 194.502 816.975 196.084 819.201 196.084ZM819.201 194.908C817.773 194.908 816.695 193.872 816.695 192.29C816.695 190.708 817.773 189.686 819.201 189.686C820.629 189.686 821.693 190.708 821.693 192.29C821.693 193.872 820.629 194.908 819.201 194.908ZM828.463 187.614C829.821 187.614 830.647 186.942 830.675 185.682H829.737C829.723 186.382 829.219 186.83 828.449 186.83C827.693 186.83 827.189 186.382 827.175 185.682H826.265C826.279 186.942 827.105 187.614 828.463 187.614ZM824.991 196H826.223L830.759 190.596V196H832.103V188.58H830.885L826.335 193.984V188.58H824.991V196ZM778.596 207.58L775.6 212.592L772.688 207.58H771.302V215H772.534V209.568L775.278 214.16H775.866L778.638 209.582V215H779.856V207.58H778.596ZM785.65 215.084C787.876 215.084 789.5 213.502 789.5 211.29C789.5 209.078 787.876 207.51 785.65 207.51C783.424 207.51 781.786 209.078 781.786 211.29C781.786 213.502 783.424 215.084 785.65 215.084ZM785.65 213.908C784.222 213.908 783.144 212.872 783.144 211.29C783.144 209.708 784.222 208.686 785.65 208.686C787.078 208.686 788.142 209.708 788.142 211.29C788.142 212.872 787.078 213.908 785.65 213.908ZM798.735 207.58L795.739 212.592L792.827 207.58H791.441V215H792.673V209.568L795.417 214.16H796.005L798.777 209.582V215H799.995V207.58H798.735ZM809.317 211.332C809.317 209.05 807.791 207.51 805.649 207.51C803.507 207.51 801.925 209.092 801.925 211.29C801.925 213.502 803.521 215.084 805.915 215.084C807.147 215.084 808.169 214.664 808.841 213.88L808.099 213.012C807.553 213.614 806.825 213.908 805.957 213.908C804.487 213.908 803.437 213.04 803.269 211.738H809.289C809.303 211.612 809.317 211.444 809.317 211.332ZM805.649 208.644C806.951 208.644 807.889 209.526 808.029 210.772H803.269C803.409 209.512 804.361 208.644 805.649 208.644ZM811.402 215H812.746V211.892H816.974V215H818.318V207.58H816.974V210.73H812.746V207.58H811.402V215ZM826.461 207.58H819.685V208.756H822.401V215H823.745V208.756H826.461V207.58Z" fill="black"/>
<path d="M928.424 190.316L930.986 187.152V186.2H924.518V187.418H929.236L926.772 190.442V191.422H927.556C929.236 191.422 929.978 192.094 929.978 193.13C929.978 194.194 929.138 194.866 927.668 194.866C926.464 194.866 925.372 194.432 924.714 193.816L924.07 194.922C924.896 195.664 926.268 196.112 927.668 196.112C930.16 196.112 931.378 194.768 931.378 193.116C931.378 191.604 930.384 190.498 928.424 190.316ZM944.367 188.58L941.371 193.592L938.459 188.58H937.073V196H938.305V190.568L941.049 195.16H941.637L944.409 190.582V196H945.627V188.58H944.367ZM954.949 192.332C954.949 190.05 953.423 188.51 951.281 188.51C949.139 188.51 947.557 190.092 947.557 192.29C947.557 194.502 949.153 196.084 951.547 196.084C952.779 196.084 953.801 195.664 954.473 194.88L953.731 194.012C953.185 194.614 952.457 194.908 951.589 194.908C950.119 194.908 949.069 194.04 948.901 192.738H954.921C954.935 192.612 954.949 192.444 954.949 192.332ZM951.281 189.644C952.583 189.644 953.521 190.526 953.661 191.772H948.901C949.041 190.512 949.993 189.644 951.281 189.644ZM960.268 196.084C961.598 196.084 962.704 195.524 963.292 194.488L962.27 193.844C961.794 194.572 961.066 194.908 960.254 194.908C958.798 194.908 957.706 193.9 957.706 192.29C957.706 190.708 958.798 189.686 960.254 189.686C961.066 189.686 961.794 190.022 962.27 190.75L963.292 190.092C962.704 189.056 961.598 188.51 960.268 188.51C957.986 188.51 956.348 190.078 956.348 192.29C956.348 194.502 957.986 196.084 960.268 196.084ZM967.502 188.58C965.514 188.58 964.24 189.462 964.24 191.184C964.24 192.36 964.87 193.13 965.976 193.466L964.17 196H965.612L967.236 193.648H967.39H969.546V196H970.75V188.58H967.502ZM965.612 191.226C965.612 190.19 966.312 189.756 967.544 189.756H969.546V192.682H967.488C966.242 192.682 965.612 192.22 965.612 191.226ZM980.12 194.824V188.58H978.776V194.824H974.716V188.58H973.372V196H980.022V197.778H981.296V194.824H980.12ZM985.684 188.51C984.494 188.51 983.388 188.846 982.618 189.462L983.178 190.47C983.752 189.98 984.648 189.672 985.53 189.672C986.86 189.672 987.518 190.33 987.518 191.464V191.73H985.39C983.178 191.73 982.408 192.71 982.408 193.9C982.408 195.188 983.472 196.084 985.152 196.084C986.314 196.084 987.14 195.692 987.588 195.02V196H988.862V191.52C988.862 189.49 987.714 188.51 985.684 188.51ZM985.376 195.048C984.354 195.048 983.738 194.586 983.738 193.844C983.738 193.214 984.116 192.696 985.446 192.696H987.518V193.732C987.182 194.586 986.384 195.048 985.376 195.048Z" fill="black"/>
<path d="M348.198 192.388H346.336V190.26H345.02V192.388H341.254L346.056 186.2H344.544L339.532 192.612V193.592H344.978V196H346.336V193.592H348.198V192.388ZM350.235 196.084C350.739 196.084 351.159 195.678 351.159 195.118C351.159 194.558 350.739 194.166 350.235 194.166C349.717 194.166 349.283 194.558 349.283 195.118C349.283 195.678 349.717 196.084 350.235 196.084ZM355.661 186.088C353.715 186.088 352.203 187.292 352.203 189.182C352.203 190.988 353.603 192.15 355.549 192.15C356.767 192.15 357.803 191.716 358.377 190.862V191.212C358.377 193.662 357.117 194.908 355.129 194.908C354.415 194.908 353.757 194.782 353.239 194.446L352.707 195.538C353.337 195.93 354.219 196.112 355.143 196.112C357.887 196.112 359.777 194.32 359.777 190.974C359.777 187.852 358.293 186.088 355.661 186.088ZM355.787 191.016C354.415 191.016 353.561 190.274 353.561 189.126C353.561 187.964 354.443 187.222 355.717 187.222C357.243 187.222 358.055 188.104 358.055 189.112C358.055 190.19 357.131 191.016 355.787 191.016Z" fill="black"/>
<path d="M367.207 198.716H368.481C367.347 196.728 366.857 194.614 366.857 192.164C366.857 189.714 367.347 187.6 368.481 185.612H367.207C366.143 187.278 365.541 189.588 365.541 192.164C365.541 194.74 366.143 197.022 367.207 198.716ZM369.176 186.2V187.418H371.388V196H372.774V186.2H369.176ZM376.78 194.782L379.776 191.898C381.106 190.624 381.386 189.77 381.386 188.818C381.386 187.138 380.07 186.088 378.026 186.088C376.5 186.088 375.198 186.634 374.442 187.572L375.394 188.398C375.996 187.67 376.85 187.334 377.9 187.334C379.272 187.334 379.986 187.95 379.986 188.958C379.986 189.574 379.79 190.19 378.754 191.198L374.764 195.048V196H381.806V194.782H376.78ZM384.819 194.782L387.815 191.898C389.145 190.624 389.425 189.77 389.425 188.818C389.425 187.138 388.109 186.088 386.065 186.088C384.539 186.088 383.237 186.634 382.481 187.572L383.433 188.398C384.035 187.67 384.889 187.334 385.939 187.334C387.311 187.334 388.025 187.95 388.025 188.958C388.025 189.574 387.829 190.19 386.793 191.198L382.803 195.048V196H389.845V194.782H384.819ZM392.046 198.716C393.124 197.022 393.726 194.74 393.726 192.164C393.726 189.588 393.124 187.278 392.046 185.612H390.772C391.906 187.6 392.41 189.714 392.41 192.164C392.41 194.614 391.906 196.728 390.772 198.716H392.046Z" fill="black" fill-opacity="0.35"/>
<path d="M322 195.667L317.102 198.658L318.434 193.075L314.075 189.342L319.796 188.883L322 183.583L324.204 188.883L329.926 189.342L325.567 193.075L326.899 198.658L322 195.667Z" fill="#FFE381"/>
<path d="M1055.53 186.2V196H1056.91V187.418H1062.6V196H1063.97V186.2H1055.53ZM1069.98 196.084C1072.2 196.084 1073.83 194.502 1073.83 192.29C1073.83 190.078 1072.2 188.51 1069.98 188.51C1067.75 188.51 1066.11 190.078 1066.11 192.29C1066.11 194.502 1067.75 196.084 1069.98 196.084ZM1069.98 194.908C1068.55 194.908 1067.47 193.872 1067.47 192.29C1067.47 190.708 1068.55 189.686 1069.98 189.686C1071.41 189.686 1072.47 190.708 1072.47 192.29C1072.47 193.872 1071.41 194.908 1069.98 194.908ZM1079 196.084C1080.33 196.084 1081.44 195.524 1082.03 194.488L1081 193.844C1080.53 194.572 1079.8 194.908 1078.99 194.908C1077.53 194.908 1076.44 193.9 1076.44 192.29C1076.44 190.708 1077.53 189.686 1078.99 189.686C1079.8 189.686 1080.53 190.022 1081 190.75L1082.03 190.092C1081.44 189.056 1080.33 188.51 1079 188.51C1076.72 188.51 1075.08 190.078 1075.08 192.29C1075.08 194.502 1076.72 196.084 1079 196.084ZM1090.36 192.332C1090.36 190.05 1088.84 188.51 1086.7 188.51C1084.55 188.51 1082.97 190.092 1082.97 192.29C1082.97 194.502 1084.57 196.084 1086.96 196.084C1088.19 196.084 1089.22 195.664 1089.89 194.88L1089.15 194.012C1088.6 194.614 1087.87 194.908 1087 194.908C1085.53 194.908 1084.48 194.04 1084.32 192.738H1090.34C1090.35 192.612 1090.36 192.444 1090.36 192.332ZM1086.7 189.644C1088 189.644 1088.94 190.526 1089.08 191.772H1084.32C1084.46 190.512 1085.41 189.644 1086.7 189.644ZM1097.66 188.58H1090.89V189.756H1093.6V196H1094.95V189.756H1097.66V188.58ZM1099.04 196H1100.27L1104.81 190.596V196H1106.15V188.58H1104.93L1100.38 193.984V188.58H1099.04V196ZM1114.29 188.58H1107.51V189.756H1110.23V196H1111.57V189.756H1114.29V188.58ZM1119.09 191.1L1117.01 191.086V188.58H1115.66V196L1118.88 196.014C1120.87 196.028 1121.99 195.132 1121.99 193.522C1121.99 191.996 1120.98 191.114 1119.09 191.1ZM1118.77 194.992L1117.01 194.978V192.066L1118.77 192.094C1120 192.108 1120.62 192.528 1120.62 193.508C1120.62 194.502 1119.99 195.006 1118.77 194.992Z" fill="#0075FF"/>
<path d="M1054 197.4H1122.41V198.1H1054V197.4Z" fill="#0075FF"/>
<path d="M1132 195.825L1135.82 192L1132 188.175L1133.18 187L1138.18 192L1133.18 197L1132 195.825Z" fill="#0075FF"/>
<path d="M198.554 216.2V220.414H192.926V216.2H191.526V226H192.926V221.632H198.554V226H199.954V216.2H198.554ZM209.492 222.332C209.492 220.05 207.966 218.51 205.824 218.51C203.682 218.51 202.1 220.092 202.1 222.29C202.1 224.502 203.696 226.084 206.09 226.084C207.322 226.084 208.344 225.664 209.016 224.88L208.274 224.012C207.728 224.614 207 224.908 206.132 224.908C204.662 224.908 203.612 224.04 203.444 222.738H209.464C209.478 222.612 209.492 222.444 209.492 222.332ZM205.824 219.644C207.126 219.644 208.064 220.526 208.204 221.772H203.444C203.584 220.512 204.536 219.644 205.824 219.644ZM216.793 218.58H210.017V219.756H212.733V226H214.077V219.756H216.793V218.58ZM221.017 226.084C223.243 226.084 224.867 224.502 224.867 222.29C224.867 220.078 223.243 218.51 221.017 218.51C218.791 218.51 217.153 220.078 217.153 222.29C217.153 224.502 218.791 226.084 221.017 226.084ZM221.017 224.908C219.589 224.908 218.511 223.872 218.511 222.29C218.511 220.708 219.589 219.686 221.017 219.686C222.445 219.686 223.509 220.708 223.509 222.29C223.509 223.872 222.445 224.908 221.017 224.908ZM227.425 218.58L227.299 221.324C227.201 223.074 227.145 224.894 225.941 224.894C225.843 224.894 225.731 224.88 225.605 224.852L225.521 225.986C225.829 226.07 226.095 226.112 226.347 226.112C228.027 226.112 228.377 224.026 228.503 221.408L228.587 219.756H231.779V226H233.123V218.58H227.425ZM238.9 226.084C241.126 226.084 242.75 224.502 242.75 222.29C242.75 220.078 241.126 218.51 238.9 218.51C236.674 218.51 235.036 220.078 235.036 222.29C235.036 224.502 236.674 226.084 238.9 226.084ZM238.9 224.908C237.472 224.908 236.394 223.872 236.394 222.29C236.394 220.708 237.472 219.686 238.9 219.686C240.328 219.686 241.392 220.708 241.392 222.29C241.392 223.872 240.328 224.908 238.9 224.908ZM250.151 218.58H244.691V226H246.035V219.756H250.151V218.58ZM251.527 226H252.759L257.295 220.596V226H258.639V218.58H257.421L252.871 223.984V218.58H251.527V226ZM263.949 218.58C261.961 218.58 260.687 219.462 260.687 221.184C260.687 222.36 261.317 223.13 262.423 223.466L260.617 226H262.059L263.683 223.648H263.837H265.993V226H267.197V218.58H263.949ZM262.059 221.226C262.059 220.19 262.759 219.756 263.991 219.756H265.993V222.682H263.935C262.689 222.682 262.059 222.22 262.059 221.226Z" fill="black"/>
<path d="M190.5 198C190.5 191.096 196.096 185.5 203 185.5H253.5C259.023 185.5 263.5 189.977 263.5 195.5C263.5 201.023 259.023 205.5 253.5 205.5H190.5V198Z" fill="white" stroke="#DEDEDE"/>
<path d="M207.914 193.69H209.182V195.661H211.353V193.69H212.621V198.786H211.353V196.719H209.182V198.786H207.914V193.69Z" fill="black"/>
<path d="M216.084 198.902C215.738 198.902 215.408 198.851 215.094 198.749C214.787 198.64 214.518 198.479 214.287 198.268C214.056 198.05 213.874 197.778 213.739 197.451C213.605 197.117 213.538 196.73 213.538 196.287V196.095C213.538 195.672 213.602 195.303 213.73 194.989C213.858 194.675 214.034 194.416 214.258 194.21C214.482 193.999 214.742 193.842 215.036 193.739C215.331 193.63 215.648 193.576 215.988 193.576C216.788 193.576 217.397 193.787 217.813 194.21C218.229 194.634 218.438 195.246 218.438 196.047V196.585H214.835C214.841 196.81 214.88 197.005 214.95 197.172C215.02 197.332 215.113 197.463 215.229 197.566C215.344 197.669 215.475 197.745 215.622 197.797C215.776 197.842 215.93 197.864 216.084 197.864C216.41 197.864 216.657 197.816 216.823 197.72C216.99 197.624 217.109 197.483 217.179 197.297H218.342C218.239 197.829 217.986 198.229 217.583 198.499C217.179 198.768 216.679 198.902 216.084 198.902ZM216.036 194.614C215.888 194.614 215.741 194.634 215.594 194.672C215.453 194.71 215.328 194.771 215.219 194.855C215.11 194.938 215.02 195.05 214.95 195.191C214.88 195.332 214.841 195.502 214.835 195.701H217.208C217.201 195.489 217.166 195.313 217.102 195.172C217.044 195.031 216.961 194.919 216.852 194.835C216.75 194.752 216.628 194.694 216.487 194.662C216.346 194.63 216.196 194.614 216.036 194.614Z" fill="black"/>
<path d="M220.497 194.748H218.873V193.69H223.389V194.748H221.765V198.786H220.497V194.748Z" fill="black"/>
<path d="M226.367 198.902C226.021 198.902 225.691 198.851 225.377 198.749C225.07 198.64 224.801 198.476 224.57 198.258C224.339 198.04 224.157 197.768 224.022 197.441C223.888 197.114 223.821 196.73 223.821 196.287V196.095C223.821 195.678 223.888 195.313 224.022 194.999C224.157 194.685 224.339 194.422 224.57 194.21C224.801 193.999 225.07 193.842 225.377 193.739C225.691 193.63 226.021 193.576 226.367 193.576C226.712 193.576 227.039 193.63 227.347 193.739C227.654 193.842 227.923 193.999 228.154 194.21C228.391 194.422 228.576 194.685 228.711 194.999C228.845 195.313 228.913 195.678 228.913 196.095V196.287C228.913 196.723 228.845 197.105 228.711 197.431C228.576 197.758 228.391 198.031 228.154 198.249C227.923 198.467 227.654 198.63 227.347 198.739C227.039 198.848 226.712 198.902 226.367 198.902ZM226.367 197.826C226.725 197.826 227.023 197.697 227.26 197.441C227.504 197.185 227.625 196.8 227.625 196.287V196.095C227.625 195.627 227.504 195.271 227.26 195.028C227.023 194.778 226.725 194.653 226.367 194.653C226.002 194.653 225.7 194.778 225.463 195.028C225.226 195.271 225.108 195.627 225.108 196.095V196.287C225.108 196.806 225.226 197.194 225.463 197.451C225.7 197.701 226.002 197.826 226.367 197.826Z" fill="black"/>
<path d="M229.776 198.901C229.725 198.901 229.661 198.898 229.584 198.892C229.507 198.892 229.443 198.885 229.392 198.873V197.728C229.424 197.735 229.472 197.738 229.536 197.738C229.657 197.738 229.763 197.703 229.853 197.632C229.943 197.555 230.016 197.427 230.074 197.248C230.138 197.068 230.183 196.831 230.208 196.536C230.24 196.235 230.256 195.863 230.256 195.421V193.69H234.292V198.786H233.023V194.748H231.429V195.613C231.429 196.273 231.393 196.818 231.323 197.248C231.259 197.671 231.156 198.004 231.015 198.248C230.881 198.491 230.708 198.661 230.497 198.757C230.292 198.853 230.051 198.901 229.776 198.901Z" fill="black"/>
<path d="M237.748 198.902C237.402 198.902 237.072 198.851 236.758 198.749C236.451 198.64 236.182 198.476 235.951 198.258C235.721 198.04 235.538 197.768 235.404 197.441C235.269 197.114 235.202 196.73 235.202 196.287V196.095C235.202 195.678 235.269 195.313 235.404 194.999C235.538 194.685 235.721 194.422 235.951 194.21C236.182 193.999 236.451 193.842 236.758 193.739C237.072 193.63 237.402 193.576 237.748 193.576C238.094 193.576 238.42 193.63 238.728 193.739C239.035 193.842 239.304 193.999 239.535 194.21C239.772 194.422 239.958 194.685 240.092 194.999C240.227 195.313 240.294 195.678 240.294 196.095V196.287C240.294 196.723 240.227 197.105 240.092 197.431C239.958 197.758 239.772 198.031 239.535 198.249C239.304 198.467 239.035 198.63 238.728 198.739C238.42 198.848 238.094 198.902 237.748 198.902ZM237.748 197.826C238.107 197.826 238.404 197.697 238.641 197.441C238.885 197.185 239.006 196.8 239.006 196.287V196.095C239.006 195.627 238.885 195.271 238.641 195.028C238.404 194.778 238.107 194.653 237.748 194.653C237.383 194.653 237.082 194.778 236.845 195.028C236.608 195.271 236.489 195.627 236.489 196.095V196.287C236.489 196.806 236.608 197.194 236.845 197.451C237.082 197.701 237.383 197.826 237.748 197.826Z" fill="black"/>
<path d="M241.299 193.69H244.95V194.748H242.567V198.786H241.299V193.69Z" fill="black"/>
<path d="M245.716 193.69H246.984V196.959L249.252 193.69H250.424V198.786H249.156V195.517L246.888 198.786H245.716V193.69Z" fill="black"/>
<path d="M252.608 196.873C252.218 196.744 251.933 196.552 251.753 196.296C251.574 196.039 251.484 195.738 251.484 195.392C251.484 195.142 251.526 194.914 251.609 194.709C251.699 194.498 251.83 194.318 252.003 194.171C252.176 194.017 252.394 193.899 252.657 193.815C252.926 193.732 253.239 193.69 253.598 193.69H256V198.786H254.732V197.026H253.819L252.714 198.786H251.292L252.608 196.873ZM252.753 195.392C252.753 195.61 252.823 195.77 252.964 195.873C253.111 195.975 253.307 196.027 253.55 196.027H254.732V194.748H253.55C253.307 194.748 253.111 194.802 252.964 194.911C252.823 195.014 252.753 195.174 252.753 195.392Z" fill="black"/>
<path fill-rule="evenodd" clip-rule="evenodd" d="M199.639 196.335C199.599 196.332 199.558 196.331 199.517 196.331C198.679 196.331 198 197.01 198 197.847C198 198.685 198.679 199.364 199.517 199.364C200.354 199.364 201.033 198.685 201.033 197.847C201.033 197.783 201.029 197.719 201.021 197.657C200.304 197.6 199.728 197.043 199.639 196.335Z" fill="#5D00F5"/>
<path fill-rule="evenodd" clip-rule="evenodd" d="M201.033 194.517C201.033 193.679 200.354 193 199.517 193C198.679 193 198 193.679 198 194.517C198 195.354 198.679 196.033 199.517 196.033C199.555 196.033 199.594 196.032 199.632 196.029C199.688 195.283 200.283 194.688 201.029 194.632C201.032 194.594 201.033 194.555 201.033 194.517Z" fill="#EB236B"/>
<path fill-rule="evenodd" clip-rule="evenodd" d="M202.656 196.021C202.718 196.029 202.782 196.033 202.846 196.033C203.684 196.033 204.363 195.354 204.363 194.517C204.363 193.679 203.684 193 202.846 193C202.008 193 201.329 193.679 201.329 194.517C201.329 194.558 201.331 194.599 201.334 194.639C202.042 194.728 202.599 195.304 202.656 196.021Z" fill="#4BD0A0"/>
<path fill-rule="evenodd" clip-rule="evenodd" d="M201.342 197.649C201.334 197.714 201.329 197.78 201.329 197.847C201.329 198.685 202.008 199.364 202.846 199.364C203.684 199.364 204.363 198.685 204.363 197.847C204.363 197.01 203.684 196.331 202.846 196.331C202.779 196.331 202.713 196.335 202.648 196.343C202.56 197.023 202.022 197.561 201.342 197.649Z" fill="#0066FF"/>
<path d="M475.896 195.608L479.32 192.312C480.84 190.856 481.16 189.88 481.16 188.792C481.16 186.872 479.656 185.672 477.32 185.672C475.576 185.672 474.088 186.296 473.224 187.368L474.312 188.312C475 187.48 475.976 187.096 477.176 187.096C478.744 187.096 479.56 187.8 479.56 188.952C479.56 189.656 479.336 190.36 478.152 191.512L473.592 195.912V197H481.64V195.608H475.896ZM487.244 190.504L490.172 186.888V185.8H482.78V187.192H488.172L485.356 190.648V191.768H486.252C488.172 191.768 489.02 192.536 489.02 193.72C489.02 194.936 488.06 195.704 486.38 195.704C485.004 195.704 483.756 195.208 483.004 194.504L482.268 195.768C483.212 196.616 484.78 197.128 486.38 197.128C489.228 197.128 490.62 195.592 490.62 193.704C490.62 191.976 489.484 190.712 487.244 190.504ZM506.153 192.872H504.025V190.44H502.521V192.872H498.217L503.705 185.8H501.977L496.249 193.128V194.248H502.473V197H504.025V194.248H506.153V192.872ZM511.688 197.128C514.296 197.128 516.248 195.048 516.248 191.4C516.248 187.752 514.296 185.672 511.688 185.672C509.064 185.672 507.112 187.752 507.112 191.4C507.112 195.048 509.064 197.128 511.688 197.128ZM511.688 195.704C509.928 195.704 508.712 194.264 508.712 191.4C508.712 188.536 509.928 187.096 511.688 187.096C513.432 187.096 514.648 188.536 514.648 191.4C514.648 194.264 513.432 195.704 511.688 195.704ZM522.36 197.128C524.968 197.128 526.92 195.048 526.92 191.4C526.92 187.752 524.968 185.672 522.36 185.672C519.736 185.672 517.784 187.752 517.784 191.4C517.784 195.048 519.736 197.128 522.36 197.128ZM522.36 195.704C520.6 195.704 519.384 194.264 519.384 191.4C519.384 188.536 520.6 187.096 522.36 187.096C524.104 187.096 525.32 188.536 525.32 191.4C525.32 194.264 524.104 195.704 522.36 195.704ZM538.496 193.272C541.376 193.272 543.152 191.96 543.152 189.528C543.152 187.112 541.376 185.8 538.496 185.8H534.096V194.216H532.464V195.128H534.096V197H535.712V195.128H539.264V194.216H535.712V193.272H538.496ZM541.536 189.544C541.536 191.064 540.448 191.944 538.496 191.944H535.712V187.192H538.496C540.448 187.192 541.536 188.024 541.536 189.544Z" fill="black"/>
<path d="M453.068 191.994C453.461 191.994 453.841 191.969 454.201 191.922V187.977C453.841 187.93 453.461 187.905 453.068 187.905C450.821 187.905 449 188.73 449 189.749V190.149C449 191.168 450.821 191.994 453.068 191.994Z" fill="black"/>
<path d="M453.068 194.054C453.461 194.054 453.841 194.029 454.201 193.981V192.825C453.841 192.872 453.461 192.898 453.068 192.898C451.107 192.898 449.47 192.269 449.086 191.431C449.03 191.553 449 191.679 449 191.809V192.209C449 193.228 450.821 194.054 453.068 194.054Z" fill="black"/>
<path d="M454.201 194.975V194.885C453.841 194.932 453.461 194.958 453.068 194.958C451.107 194.958 449.47 194.329 449.086 193.491C449.03 193.613 449 193.739 449 193.869V194.269C449 195.288 450.821 196.114 453.068 196.114C453.517 196.114 453.949 196.081 454.353 196.02C454.253 195.815 454.201 195.599 454.201 195.375V194.975Z" fill="black"/>
<path d="M458.932 184.78C456.686 184.78 454.865 185.606 454.865 186.625V187.025C454.865 188.044 456.686 188.87 458.932 188.87C461.179 188.87 463 188.044 463 187.025V186.625C463 185.606 461.179 184.78 458.932 184.78Z" fill="black"/>
<path d="M458.932 189.774C456.972 189.774 455.335 189.144 454.95 188.307C454.894 188.429 454.865 188.555 454.865 188.684V189.085C454.865 190.103 456.686 190.929 458.932 190.929C461.179 190.929 463 190.103 463 189.085V188.684C463 188.555 462.97 188.429 462.914 188.307C462.53 189.144 460.893 189.774 458.932 189.774Z" fill="black"/>
<path d="M458.932 191.833C456.972 191.833 455.335 191.204 454.95 190.366C454.894 190.488 454.865 190.615 454.865 190.744V191.144C454.865 192.163 456.686 192.989 458.932 192.989C461.179 192.989 463 192.163 463 191.144V190.744C463 190.615 462.97 190.488 462.914 190.366C462.53 191.204 460.893 191.833 458.932 191.833Z" fill="black"/>
<path d="M458.932 194.004C456.972 194.004 455.335 193.375 454.95 192.537C454.894 192.659 454.865 192.786 454.865 192.915V193.315C454.865 194.334 456.686 195.16 458.932 195.16C461.179 195.16 463 194.334 463 193.315V192.915C463 192.786 462.97 192.659 462.914 192.537C462.53 193.375 460.893 194.004 458.932 194.004Z" fill="black"/>
<path d="M458.932 196.064C456.972 196.064 455.335 195.435 454.95 194.597C454.894 194.719 454.865 194.845 454.865 194.975V195.375C454.865 196.394 456.686 197.22 458.932 197.22C461.179 197.22 463 196.394 463 195.375V194.975C463 194.845 462.97 194.719 462.914 194.597C462.53 195.435 460.893 196.064 458.932 196.064Z" fill="black"/>
<path d="M910.138 192.06L908.465 190.805V188.249C908.465 187.992 908.257 187.784 908 187.784C907.743 187.784 907.535 187.992 907.535 188.249V191.037C907.535 191.184 907.604 191.322 907.721 191.409L909.58 192.803C909.664 192.866 909.761 192.896 909.859 192.896C910 192.896 910.14 192.833 910.231 192.71C910.385 192.505 910.343 192.214 910.138 192.06Z" fill="black"/>
<path d="M908 185C904.691 185 902 187.691 902 191C902 194.309 904.691 197 908 197C911.309 197 914 194.309 914 191C914 187.691 911.309 185 908 185ZM908 196.07C905.204 196.07 902.93 193.796 902.93 191C902.93 188.204 905.204 185.93 908 185.93C910.796 185.93 913.07 188.204 913.07 191C913.07 193.796 910.796 196.07 908 196.07Z" fill="black"/>
</svg>
