<svg width="16" height="16" viewBox="0 0 16 16" fill="none" xmlns="http://www.w3.org/2000/svg">
<g clip-path="url(#clip0_58_1261)">
<path d="M4.64865 9.13652C5.09829 9.13652 5.53291 9.10748 5.94418 9.05341V4.54548C5.53295 4.49146 5.09829 4.46241 4.64865 4.46241C2.08127 4.46241 0 5.40636 0 6.57082V7.02807C0 8.1925 2.08127 9.13652 4.64865 9.13652Z" fill="black"/>
<path d="M4.64865 11.4904C5.09829 11.4904 5.53291 11.4613 5.94418 11.4074V10.086C5.53283 10.14 5.09841 10.1695 4.64865 10.1695C2.40761 10.1695 0.537132 9.45019 0.0977689 8.4929C0.0337849 8.63234 0 8.77672 0 8.92473V9.38198C0 10.5464 2.08127 11.4904 4.64865 11.4904Z" fill="black"/>
<path d="M5.94419 12.5427V12.44C5.53283 12.494 5.09841 12.5235 4.64865 12.5235C2.40761 12.5235 0.537132 11.8042 0.097769 10.8469C0.0337849 10.9863 0 11.1307 0 11.2787V11.736C0 12.9005 2.08128 13.8444 4.64865 13.8444C5.16207 13.8444 5.6559 13.8066 6.11769 13.7368C6.00323 13.5027 5.94419 13.2558 5.94419 12.9999V12.5427Z" fill="black"/>
<path d="M11.3513 0.891532C8.78391 0.891532 6.70264 1.83548 6.70264 2.99994V3.45719C6.70264 4.62165 8.78391 5.56559 11.3513 5.56559C13.9186 5.56559 15.9999 4.62165 15.9999 3.45719V2.99994C15.9999 1.83548 13.9186 0.891532 11.3513 0.891532Z" fill="black"/>
<path d="M11.3513 6.5986C9.11025 6.5986 7.23977 5.87935 6.80041 4.92202C6.73642 5.06142 6.70264 5.20581 6.70264 5.35385V5.8111C6.70264 6.97557 8.78391 7.91951 11.3513 7.91951C13.9186 7.91951 15.9999 6.97557 15.9999 5.8111V5.35385C15.9999 5.20581 15.9661 5.06142 15.9022 4.92202C15.4628 5.87935 13.5923 6.5986 11.3513 6.5986Z" fill="black"/>
<path d="M11.3513 8.95251C9.11025 8.95251 7.23977 8.23323 6.80041 7.27593C6.73642 7.41534 6.70264 7.55972 6.70264 7.70777V8.16502C6.70264 9.32952 8.78391 10.2735 11.3513 10.2735C13.9186 10.2735 15.9999 9.32952 15.9999 8.16502V7.70777C15.9999 7.55972 15.9661 7.41534 15.9022 7.27593C15.4628 8.23327 13.5923 8.95251 11.3513 8.95251Z" fill="black"/>
<path d="M11.3513 11.4336C9.11025 11.4336 7.23977 10.7143 6.80041 9.75701C6.73642 9.89645 6.70264 10.0408 6.70264 10.1888V10.6461C6.70264 11.8106 8.78391 12.7545 11.3513 12.7545C13.9186 12.7545 15.9999 11.8106 15.9999 10.6461V10.1888C15.9999 10.0408 15.9661 9.89637 15.9022 9.75701C15.4628 10.7143 13.5923 11.4336 11.3513 11.4336Z" fill="black"/>
<path d="M11.3513 13.7873C9.11025 13.7873 7.23977 13.0681 6.80041 12.1108C6.73642 12.2502 6.70264 12.3947 6.70264 12.5426V12.9998C6.70264 14.1643 8.78391 15.1083 11.3513 15.1083C13.9186 15.1083 15.9999 14.1643 15.9999 12.9998V12.5426C15.9999 12.3945 15.9661 12.2501 15.9022 12.1108C15.4628 13.0681 13.5923 13.7873 11.3513 13.7873Z" fill="black"/>
</g>
<defs>
<clipPath id="clip0_58_1261">
<rect width="16" height="16" fill="white"/>
</clipPath>
</defs>
</svg>
