<svg width="94" height="17" viewBox="0 0 94 17" fill="none" xmlns="http://www.w3.org/2000/svg">
<path d="M8.196 16.176C10.594 16.176 12.662 15.34 14.07 13.756L12.64 12.37C11.452 13.624 10 14.218 8.306 14.218C4.83 14.218 2.256 11.71 2.256 8.3C2.256 4.89 4.83 2.382 8.306 2.382C10 2.382 11.452 2.954 12.64 4.208L14.07 2.822C12.662 1.238 10.594 0.424 8.218 0.424C3.532 0.424 0.056 3.746 0.056 8.3C0.056 12.854 3.532 16.176 8.196 16.176ZM25.2912 4.34V10.368C25.2912 12.876 23.8832 14.24 21.6832 14.24C19.6812 14.24 18.5372 13.096 18.5372 10.808V4.34H16.4252V11.05C16.4252 14.482 18.4272 16.132 21.4412 16.132C23.0912 16.132 24.5432 15.45 25.4012 14.24V16H27.4032V4.34H25.2912ZM33.4479 6.298V4.34H31.4239V16H33.5359V10.192C33.5359 7.64 34.9439 6.254 37.2099 6.254C37.3639 6.254 37.5179 6.254 37.6939 6.276V4.23C35.6479 4.23 34.1959 4.934 33.4479 6.298ZM43.7269 16.132C46.8289 16.132 48.7649 14.79 48.7649 12.678C48.7649 8.146 41.3729 10.39 41.3729 7.64C41.3729 6.716 42.2749 6.034 44.1229 6.034C45.2669 6.034 46.4329 6.276 47.4889 6.958L48.3909 5.286C47.3789 4.626 45.6629 4.23 44.1449 4.23C41.1529 4.23 39.2829 5.638 39.2829 7.728C39.2829 12.37 46.6529 10.104 46.6529 12.722C46.6529 13.712 45.8389 14.306 43.8809 14.306C42.3629 14.306 40.7789 13.8 39.7889 13.096L38.9089 14.768C39.8769 15.538 41.7909 16.132 43.7269 16.132ZM55.6503 4.23C53.7803 4.23 52.0423 4.758 50.8323 5.726L51.7123 7.31C52.6143 6.54 54.0223 6.056 55.4083 6.056C57.4983 6.056 58.5323 7.09 58.5323 8.872V9.29H55.1883C51.7123 9.29 50.5023 10.83 50.5023 12.7C50.5023 14.724 52.1743 16.132 54.8143 16.132C56.6403 16.132 57.9383 15.516 58.6423 14.46V16H60.6443V8.96C60.6443 5.77 58.8403 4.23 55.6503 4.23ZM55.1663 14.504C53.5603 14.504 52.5923 13.778 52.5923 12.612C52.5923 11.622 53.1863 10.808 55.2763 10.808H58.5323V12.436C58.0043 13.778 56.7503 14.504 55.1663 14.504ZM70.4488 13.8C70.0088 14.152 69.4148 14.35 68.7988 14.35C67.6328 14.35 66.9728 13.646 66.9728 12.392V6.078H70.3168V4.34H66.9728V1.788H64.8608V4.34H62.8808V6.078H64.8608V12.48C64.8608 14.834 66.2028 16.132 68.5568 16.132C69.5028 16.132 70.4708 15.868 71.1088 15.318L70.4488 13.8ZM78.2694 16.132C81.7674 16.132 84.3194 13.646 84.3194 10.17C84.3194 6.694 81.7674 4.23 78.2694 4.23C74.7714 4.23 72.1974 6.694 72.1974 10.17C72.1974 13.646 74.7714 16.132 78.2694 16.132ZM78.2694 14.284C76.0254 14.284 74.3314 12.656 74.3314 10.17C74.3314 7.684 76.0254 6.078 78.2694 6.078C80.5134 6.078 82.1854 7.684 82.1854 10.17C82.1854 12.656 80.5134 14.284 78.2694 14.284ZM89.2643 6.298V4.34H87.2403V16H89.3523V10.192C89.3523 7.64 90.7603 6.254 93.0263 6.254C93.1803 6.254 93.3343 6.254 93.5103 6.276V4.23C91.4643 4.23 90.0123 4.934 89.2643 6.298Z" fill="black"/>
</svg>
