<svg width="37" height="36" viewBox="0 0 37 36" fill="none" xmlns="http://www.w3.org/2000/svg">
<circle cx="18.8999" cy="18" r="18" fill="#F79A38"/>
<path d="M24.514 20.5136C24.9862 20.0414 25.0537 19.3667 24.6489 18.6921C24.3116 18.1524 23.7044 17.8825 23.0298 18.0174C22.7599 18.0849 22.49 18.2198 22.2202 18.4222C20.1288 19.839 17.2952 19.7715 15.2038 18.3548C15.0689 18.2873 14.934 18.2198 14.799 18.1524C14.0569 17.815 13.3148 17.95 12.91 18.6246C12.4378 19.2993 12.5052 20.0414 13.1124 20.6486C13.2473 20.7835 13.3823 20.851 13.4497 20.9859L13.5172 21.0534C14.4617 21.7955 15.6086 22.2677 17.0928 22.4701L16.2158 23.3472C15.4737 24.0893 14.6641 24.8989 13.922 25.641C13.7196 25.8434 13.4497 26.1807 13.4497 26.653C13.4497 27.2601 13.7871 27.8673 14.3942 28.1372C14.5966 28.2721 14.799 28.2721 15.0014 28.2721C15.3387 28.2721 15.7435 28.1372 16.0134 27.7999C17.0254 26.7879 17.835 25.9783 18.6445 25.1687C18.712 25.1013 18.712 25.1013 18.712 25.1013C18.712 25.1013 18.7795 25.1013 18.7795 25.1687C19.3192 25.7759 19.9264 26.3156 20.4661 26.9228C20.7359 27.1927 21.0058 27.4625 21.2757 27.7324C21.613 28.0697 21.8828 28.2047 22.2876 28.2047C22.8948 28.2721 23.5695 27.8673 23.8393 27.2601C24.1092 26.7204 23.9743 26.0458 23.502 25.641C22.8274 24.9663 22.1527 24.2242 21.4106 23.5496L20.2637 22.4027C20.8709 22.3352 21.5455 22.2003 22.1527 21.9304C23.1647 21.5931 23.9068 21.1208 24.514 20.5136Z" fill="white"/>
<path d="M18.712 18.6246C21.613 18.6246 23.9743 16.3308 23.9743 13.4298C23.9743 12.0131 23.4345 10.6638 22.4226 9.65179C21.4106 8.63982 20.1288 8.1001 18.7795 8.1001C15.8785 8.1001 13.5847 10.4614 13.5172 13.2949C13.5172 14.7117 14.0569 15.9935 15.0689 17.0055C16.0134 18.0849 17.2952 18.6246 18.712 18.6246ZM17.2278 11.8781C17.6326 11.4733 18.1723 11.2709 18.712 11.2709C19.9264 11.2709 20.8034 12.2155 20.8034 13.3624C20.8034 14.5767 19.8589 15.4538 18.712 15.4538C17.4976 15.4538 16.6206 14.5093 16.6206 13.3624C16.6206 12.8226 16.823 12.2829 17.2278 11.8781Z" fill="white"/>
<path d="M24.514 20.5136C24.9862 20.0414 25.0537 19.3667 24.6489 18.6921C24.3116 18.1524 23.7044 17.8825 23.0298 18.0174C22.7599 18.0849 22.49 18.2198 22.2202 18.4222C20.1288 19.839 17.2952 19.7715 15.2038 18.3548C15.0689 18.2873 14.934 18.2198 14.799 18.1524C14.0569 17.815 13.3148 17.95 12.91 18.6246C12.4378 19.2993 12.5052 20.0414 13.1124 20.6486C13.2473 20.7835 13.3823 20.851 13.4497 20.9859L13.5172 21.0534C14.4617 21.7955 15.6086 22.2677 17.0928 22.4701L16.2158 23.3472C15.4737 24.0893 14.6641 24.8989 13.922 25.641C13.7196 25.8434 13.4497 26.1807 13.4497 26.653C13.4497 27.2601 13.7871 27.8673 14.3942 28.1372C14.5966 28.2721 14.799 28.2721 15.0014 28.2721C15.3387 28.2721 15.7435 28.1372 16.0134 27.7999C17.0254 26.7879 17.835 25.9783 18.6445 25.1687C18.712 25.1013 18.712 25.1013 18.712 25.1013C18.712 25.1013 18.7795 25.1013 18.7795 25.1687C19.3192 25.7759 19.9264 26.3156 20.4661 26.9228C20.7359 27.1927 21.0058 27.4625 21.2757 27.7324C21.613 28.0697 21.8828 28.2047 22.2876 28.2047C22.8948 28.2721 23.5695 27.8673 23.8393 27.2601C24.1092 26.7204 23.9743 26.0458 23.502 25.641C22.8274 24.9663 22.1527 24.2242 21.4106 23.5496L20.2637 22.4027C20.8709 22.3352 21.5455 22.2003 22.1527 21.9304C23.1647 21.5931 23.9068 21.1208 24.514 20.5136Z" fill="white"/>
</svg>
