<svg width="37" height="36" viewBox="0 0 37 36" fill="none" xmlns="http://www.w3.org/2000/svg">
<circle cx="18.2998" cy="18" r="18" fill="#55ACE3"/>
<path d="M27.8397 13.4102C27.2097 13.6802 26.4897 13.8602 25.7697 13.9502C26.4897 13.5002 27.1197 12.7802 27.3897 11.9702C26.6697 12.4202 25.9497 12.6902 25.0497 12.8702C24.4197 12.1502 23.4297 11.7002 22.4397 11.7002C20.4597 11.7002 18.8397 13.3202 18.8397 15.3002C18.8397 15.5702 18.8397 15.8402 18.9297 16.1102C15.9597 15.9302 13.2597 14.4902 11.4597 12.3302C11.1897 12.8702 11.0097 13.5002 11.0097 14.1302C11.0097 15.3902 11.6397 16.4702 12.6297 17.1002C11.9997 17.1002 11.4597 16.9202 11.0097 16.6502C11.0097 18.3602 12.2697 19.8902 13.8897 20.1602C13.6197 20.2502 13.2597 20.2502 12.8997 20.2502C12.6297 20.2502 12.4497 20.2502 12.1797 20.1602C12.6297 21.6002 13.9797 22.6802 15.5997 22.6802C14.3397 23.6702 12.8097 24.2102 11.0997 24.2102C10.8297 24.2102 10.5597 24.2102 10.1997 24.1202C11.8197 25.1102 13.7097 25.7402 15.7797 25.7402C22.4397 25.7402 26.0397 20.2502 26.0397 15.4802V15.0302C26.7597 14.7602 27.3897 14.1302 27.8397 13.4102Z" fill="white"/>
</svg>
