<svg width="37" height="36" viewBox="0 0 37 36" fill="none" xmlns="http://www.w3.org/2000/svg">
<circle cx="18.7998" cy="18" r="18" fill="#48C95F"/>
<path d="M25.9339 10.8563C24.1559 9.08447 21.7852 8.1001 19.2827 8.1001C14.0803 8.1001 9.86566 12.3001 9.86566 17.4845C9.86566 19.1251 10.3266 20.7657 11.1169 22.1438L9.7998 27.0001L14.8047 25.6876C16.1876 26.4095 17.7022 26.8032 19.2827 26.8032C24.4852 26.8032 28.6998 22.6032 28.6998 17.4188C28.634 14.9907 27.712 12.6282 25.9339 10.8563ZM23.8266 20.8313C23.6291 21.3563 22.7071 21.8813 22.2461 21.947C21.851 22.0126 21.3242 22.0126 20.7974 21.8813C20.4681 21.7501 20.0071 21.6188 19.4803 21.3563C17.1096 20.372 15.5949 18.0095 15.4632 17.8126C15.3315 17.6813 14.4754 16.5657 14.4754 15.3845C14.4754 14.2032 15.0681 13.6782 15.2657 13.4157C15.4632 13.1532 15.7266 13.1532 15.9242 13.1532C16.0559 13.1532 16.2535 13.1532 16.3852 13.1532C16.5169 13.1532 16.7144 13.0876 16.912 13.547C17.1096 14.0063 17.5705 15.1876 17.6364 15.2532C17.7022 15.3845 17.7022 15.5157 17.6364 15.647C17.5705 15.7782 17.5047 15.9095 17.373 16.0407C17.2413 16.172 17.1096 16.3688 17.0437 16.4345C16.912 16.5657 16.7803 16.697 16.912 16.8938C17.0437 17.1563 17.5047 17.8782 18.2291 18.5345C19.151 19.322 19.8754 19.5845 20.1388 19.7157C20.4022 19.847 20.5339 19.7813 20.6657 19.6501C20.7974 19.5188 21.2583 18.9938 21.3901 18.7313C21.5218 18.4688 21.7193 18.5345 21.9169 18.6001C22.1144 18.6657 23.2998 19.2563 23.4974 19.3876C23.7608 19.5188 23.8925 19.5845 23.9583 19.6501C24.0242 19.847 24.0242 20.3063 23.8266 20.8313Z" fill="white"/>
</svg>
